<mxfile host="app.diagrams.net" modified="2021-08-25T08:13:17.188Z" agent="5.0 (Windows NT 10.0; Win64; x64) AppleWebKit/537.36 (KHTML, like Gecko) Chrome/92.0.4515.131 Safari/537.36" etag="E0MnYkJx8BMmmZHxQi_U" version="14.9.8" type="github">
  <diagram id="C5RBs43oDa-KdzZeNtuy" name="Page-1">
    <mxGraphModel dx="1422" dy="794" grid="1" gridSize="10" guides="1" tooltips="1" connect="1" arrows="1" fold="1" page="1" pageScale="1" pageWidth="827" pageHeight="1169" math="0" shadow="0">
      <root>
        <mxCell id="WIyWlLk6GJQsqaUBKTNV-0" />
        <mxCell id="WIyWlLk6GJQsqaUBKTNV-1" parent="WIyWlLk6GJQsqaUBKTNV-0" />
        <mxCell id="O6rhdWlGDvvYx7ezGtEy-0" value="config_version" style="shape=table;startSize=30;container=1;collapsible=1;childLayout=tableLayout;fixedRows=1;rowLines=0;fontStyle=1;align=center;resizeLast=1;" vertex="1" parent="WIyWlLk6GJQsqaUBKTNV-1">
          <mxGeometry x="130" y="340" width="270" height="390" as="geometry" />
        </mxCell>
        <mxCell id="O6rhdWlGDvvYx7ezGtEy-1" value="" style="shape=partialRectangle;collapsible=0;dropTarget=0;pointerEvents=0;fillColor=none;top=0;left=0;bottom=1;right=0;points=[[0,0.5],[1,0.5]];portConstraint=eastwest;" vertex="1" parent="O6rhdWlGDvvYx7ezGtEy-0">
          <mxGeometry y="30" width="270" height="20" as="geometry" />
        </mxCell>
        <mxCell id="O6rhdWlGDvvYx7ezGtEy-2" value="PK" style="shape=partialRectangle;connectable=0;fillColor=none;top=0;left=0;bottom=0;right=0;fontStyle=1;overflow=hidden;" vertex="1" parent="O6rhdWlGDvvYx7ezGtEy-1">
          <mxGeometry width="30" height="20" as="geometry" />
        </mxCell>
        <mxCell id="O6rhdWlGDvvYx7ezGtEy-3" value="id" style="shape=partialRectangle;connectable=0;fillColor=none;top=0;left=0;bottom=0;right=0;align=left;spacingLeft=6;fontStyle=5;overflow=hidden;" vertex="1" parent="O6rhdWlGDvvYx7ezGtEy-1">
          <mxGeometry x="30" width="240" height="20" as="geometry" />
        </mxCell>
        <mxCell id="O6rhdWlGDvvYx7ezGtEy-4" value="" style="shape=partialRectangle;collapsible=0;dropTarget=0;pointerEvents=0;fillColor=none;top=0;left=0;bottom=0;right=0;points=[[0,0.5],[1,0.5]];portConstraint=eastwest;" vertex="1" parent="O6rhdWlGDvvYx7ezGtEy-0">
          <mxGeometry y="50" width="270" height="30" as="geometry" />
        </mxCell>
        <mxCell id="O6rhdWlGDvvYx7ezGtEy-5" value="" style="shape=partialRectangle;connectable=0;fillColor=none;top=0;left=0;bottom=0;right=0;editable=1;overflow=hidden;" vertex="1" parent="O6rhdWlGDvvYx7ezGtEy-4">
          <mxGeometry width="30" height="30" as="geometry" />
        </mxCell>
        <mxCell id="O6rhdWlGDvvYx7ezGtEy-6" value="topic_code（配置主题编码）" style="shape=partialRectangle;connectable=0;fillColor=none;top=0;left=0;bottom=0;right=0;align=left;spacingLeft=6;overflow=hidden;" vertex="1" parent="O6rhdWlGDvvYx7ezGtEy-4">
          <mxGeometry x="30" width="240" height="30" as="geometry" />
        </mxCell>
        <mxCell id="O6rhdWlGDvvYx7ezGtEy-7" value="" style="shape=partialRectangle;collapsible=0;dropTarget=0;pointerEvents=0;fillColor=none;top=0;left=0;bottom=0;right=0;points=[[0,0.5],[1,0.5]];portConstraint=eastwest;" vertex="1" parent="O6rhdWlGDvvYx7ezGtEy-0">
          <mxGeometry y="80" width="270" height="30" as="geometry" />
        </mxCell>
        <mxCell id="O6rhdWlGDvvYx7ezGtEy-8" value="" style="shape=partialRectangle;connectable=0;fillColor=none;top=0;left=0;bottom=0;right=0;editable=1;overflow=hidden;" vertex="1" parent="O6rhdWlGDvvYx7ezGtEy-7">
          <mxGeometry width="30" height="30" as="geometry" />
        </mxCell>
        <mxCell id="O6rhdWlGDvvYx7ezGtEy-9" value="config_tpl_version（配置模板版本）" style="shape=partialRectangle;connectable=0;fillColor=none;top=0;left=0;bottom=0;right=0;align=left;spacingLeft=6;overflow=hidden;" vertex="1" parent="O6rhdWlGDvvYx7ezGtEy-7">
          <mxGeometry x="30" width="240" height="30" as="geometry" />
        </mxCell>
        <mxCell id="O6rhdWlGDvvYx7ezGtEy-10" value="" style="shape=partialRectangle;collapsible=0;dropTarget=0;pointerEvents=0;fillColor=none;top=0;left=0;bottom=0;right=0;points=[[0,0.5],[1,0.5]];portConstraint=eastwest;" vertex="1" parent="O6rhdWlGDvvYx7ezGtEy-0">
          <mxGeometry y="110" width="270" height="30" as="geometry" />
        </mxCell>
        <mxCell id="O6rhdWlGDvvYx7ezGtEy-11" value="" style="shape=partialRectangle;connectable=0;fillColor=none;top=0;left=0;bottom=0;right=0;editable=1;overflow=hidden;" vertex="1" parent="O6rhdWlGDvvYx7ezGtEy-10">
          <mxGeometry width="30" height="30" as="geometry" />
        </mxCell>
        <mxCell id="O6rhdWlGDvvYx7ezGtEy-12" value="config_tpl_version_desc(版本说明)" style="shape=partialRectangle;connectable=0;fillColor=none;top=0;left=0;bottom=0;right=0;align=left;spacingLeft=6;overflow=hidden;" vertex="1" parent="O6rhdWlGDvvYx7ezGtEy-10">
          <mxGeometry x="30" width="240" height="30" as="geometry" />
        </mxCell>
        <mxCell id="O6rhdWlGDvvYx7ezGtEy-13" value="" style="shape=partialRectangle;collapsible=0;dropTarget=0;pointerEvents=0;fillColor=none;top=0;left=0;bottom=0;right=0;points=[[0,0.5],[1,0.5]];portConstraint=eastwest;" vertex="1" parent="O6rhdWlGDvvYx7ezGtEy-0">
          <mxGeometry y="140" width="270" height="30" as="geometry" />
        </mxCell>
        <mxCell id="O6rhdWlGDvvYx7ezGtEy-14" value="" style="shape=partialRectangle;connectable=0;fillColor=none;top=0;left=0;bottom=0;right=0;editable=1;overflow=hidden;" vertex="1" parent="O6rhdWlGDvvYx7ezGtEy-13">
          <mxGeometry width="30" height="30" as="geometry" />
        </mxCell>
        <mxCell id="O6rhdWlGDvvYx7ezGtEy-15" value="status（有效状态，同一版本配置，只会有一个是启用状态）" style="shape=partialRectangle;connectable=0;fillColor=none;top=0;left=0;bottom=0;right=0;align=left;spacingLeft=6;overflow=hidden;" vertex="1" parent="O6rhdWlGDvvYx7ezGtEy-13">
          <mxGeometry x="30" width="240" height="30" as="geometry" />
        </mxCell>
        <mxCell id="O6rhdWlGDvvYx7ezGtEy-16" value="" style="shape=partialRectangle;collapsible=0;dropTarget=0;pointerEvents=0;fillColor=none;top=0;left=0;bottom=0;right=0;points=[[0,0.5],[1,0.5]];portConstraint=eastwest;" vertex="1" parent="O6rhdWlGDvvYx7ezGtEy-0">
          <mxGeometry y="170" width="270" height="30" as="geometry" />
        </mxCell>
        <mxCell id="O6rhdWlGDvvYx7ezGtEy-17" value="" style="shape=partialRectangle;connectable=0;fillColor=none;top=0;left=0;bottom=0;right=0;editable=1;overflow=hidden;" vertex="1" parent="O6rhdWlGDvvYx7ezGtEy-16">
          <mxGeometry width="30" height="30" as="geometry" />
        </mxCell>
        <mxCell id="O6rhdWlGDvvYx7ezGtEy-18" value="deleted（是否删除，软删除标记）" style="shape=partialRectangle;connectable=0;fillColor=none;top=0;left=0;bottom=0;right=0;align=left;spacingLeft=6;overflow=hidden;" vertex="1" parent="O6rhdWlGDvvYx7ezGtEy-16">
          <mxGeometry x="30" width="240" height="30" as="geometry" />
        </mxCell>
        <mxCell id="O6rhdWlGDvvYx7ezGtEy-19" value="" style="shape=partialRectangle;collapsible=0;dropTarget=0;pointerEvents=0;fillColor=none;top=0;left=0;bottom=0;right=0;points=[[0,0.5],[1,0.5]];portConstraint=eastwest;" vertex="1" parent="O6rhdWlGDvvYx7ezGtEy-0">
          <mxGeometry y="200" width="270" height="30" as="geometry" />
        </mxCell>
        <mxCell id="O6rhdWlGDvvYx7ezGtEy-20" value="" style="shape=partialRectangle;connectable=0;fillColor=none;top=0;left=0;bottom=0;right=0;editable=1;overflow=hidden;" vertex="1" parent="O6rhdWlGDvvYx7ezGtEy-19">
          <mxGeometry width="30" height="30" as="geometry" />
        </mxCell>
        <mxCell id="O6rhdWlGDvvYx7ezGtEy-21" value="deleted_at（软删除时间）" style="shape=partialRectangle;connectable=0;fillColor=none;top=0;left=0;bottom=0;right=0;align=left;spacingLeft=6;overflow=hidden;" vertex="1" parent="O6rhdWlGDvvYx7ezGtEy-19">
          <mxGeometry x="30" width="240" height="30" as="geometry" />
        </mxCell>
        <mxCell id="O6rhdWlGDvvYx7ezGtEy-22" value="" style="shape=partialRectangle;collapsible=0;dropTarget=0;pointerEvents=0;fillColor=none;top=0;left=0;bottom=0;right=0;points=[[0,0.5],[1,0.5]];portConstraint=eastwest;" vertex="1" parent="O6rhdWlGDvvYx7ezGtEy-0">
          <mxGeometry y="230" width="270" height="30" as="geometry" />
        </mxCell>
        <mxCell id="O6rhdWlGDvvYx7ezGtEy-23" value="" style="shape=partialRectangle;connectable=0;fillColor=none;top=0;left=0;bottom=0;right=0;editable=1;overflow=hidden;" vertex="1" parent="O6rhdWlGDvvYx7ezGtEy-22">
          <mxGeometry width="30" height="30" as="geometry" />
        </mxCell>
        <mxCell id="O6rhdWlGDvvYx7ezGtEy-24" value="updated_at（最后更新时间）" style="shape=partialRectangle;connectable=0;fillColor=none;top=0;left=0;bottom=0;right=0;align=left;spacingLeft=6;overflow=hidden;" vertex="1" parent="O6rhdWlGDvvYx7ezGtEy-22">
          <mxGeometry x="30" width="240" height="30" as="geometry" />
        </mxCell>
        <mxCell id="O6rhdWlGDvvYx7ezGtEy-25" value="" style="shape=partialRectangle;collapsible=0;dropTarget=0;pointerEvents=0;fillColor=none;top=0;left=0;bottom=0;right=0;points=[[0,0.5],[1,0.5]];portConstraint=eastwest;" vertex="1" parent="O6rhdWlGDvvYx7ezGtEy-0">
          <mxGeometry y="260" width="270" height="30" as="geometry" />
        </mxCell>
        <mxCell id="O6rhdWlGDvvYx7ezGtEy-26" value="" style="shape=partialRectangle;connectable=0;fillColor=none;top=0;left=0;bottom=0;right=0;editable=1;overflow=hidden;" vertex="1" parent="O6rhdWlGDvvYx7ezGtEy-25">
          <mxGeometry width="30" height="30" as="geometry" />
        </mxCell>
        <mxCell id="O6rhdWlGDvvYx7ezGtEy-27" value="created_at（数据创建时间）" style="shape=partialRectangle;connectable=0;fillColor=none;top=0;left=0;bottom=0;right=0;align=left;spacingLeft=6;overflow=hidden;" vertex="1" parent="O6rhdWlGDvvYx7ezGtEy-25">
          <mxGeometry x="30" width="240" height="30" as="geometry" />
        </mxCell>
        <mxCell id="O6rhdWlGDvvYx7ezGtEy-28" value="" style="shape=partialRectangle;collapsible=0;dropTarget=0;pointerEvents=0;fillColor=none;top=0;left=0;bottom=0;right=0;points=[[0,0.5],[1,0.5]];portConstraint=eastwest;" vertex="1" parent="O6rhdWlGDvvYx7ezGtEy-0">
          <mxGeometry y="290" width="270" height="30" as="geometry" />
        </mxCell>
        <mxCell id="O6rhdWlGDvvYx7ezGtEy-29" value="" style="shape=partialRectangle;connectable=0;fillColor=none;top=0;left=0;bottom=0;right=0;editable=1;overflow=hidden;" vertex="1" parent="O6rhdWlGDvvYx7ezGtEy-28">
          <mxGeometry width="30" height="30" as="geometry" />
        </mxCell>
        <mxCell id="O6rhdWlGDvvYx7ezGtEy-30" value="" style="shape=partialRectangle;connectable=0;fillColor=none;top=0;left=0;bottom=0;right=0;align=left;spacingLeft=6;overflow=hidden;" vertex="1" parent="O6rhdWlGDvvYx7ezGtEy-28">
          <mxGeometry x="30" width="240" height="30" as="geometry" />
        </mxCell>
        <mxCell id="O6rhdWlGDvvYx7ezGtEy-31" value="config_field" style="shape=table;startSize=30;container=1;collapsible=1;childLayout=tableLayout;fixedRows=1;rowLines=0;fontStyle=1;align=center;resizeLast=1;" vertex="1" parent="WIyWlLk6GJQsqaUBKTNV-1">
          <mxGeometry x="780" y="200" width="360" height="450" as="geometry" />
        </mxCell>
        <mxCell id="O6rhdWlGDvvYx7ezGtEy-32" value="" style="shape=partialRectangle;collapsible=0;dropTarget=0;pointerEvents=0;fillColor=none;top=0;left=0;bottom=1;right=0;points=[[0,0.5],[1,0.5]];portConstraint=eastwest;" vertex="1" parent="O6rhdWlGDvvYx7ezGtEy-31">
          <mxGeometry y="30" width="360" height="30" as="geometry" />
        </mxCell>
        <mxCell id="O6rhdWlGDvvYx7ezGtEy-33" value="PK" style="shape=partialRectangle;connectable=0;fillColor=none;top=0;left=0;bottom=0;right=0;fontStyle=1;overflow=hidden;" vertex="1" parent="O6rhdWlGDvvYx7ezGtEy-32">
          <mxGeometry width="30" height="30" as="geometry" />
        </mxCell>
        <mxCell id="O6rhdWlGDvvYx7ezGtEy-34" value="id" style="shape=partialRectangle;connectable=0;fillColor=none;top=0;left=0;bottom=0;right=0;align=left;spacingLeft=6;fontStyle=5;overflow=hidden;" vertex="1" parent="O6rhdWlGDvvYx7ezGtEy-32">
          <mxGeometry x="30" width="330" height="30" as="geometry" />
        </mxCell>
        <mxCell id="O6rhdWlGDvvYx7ezGtEy-35" value="" style="shape=partialRectangle;collapsible=0;dropTarget=0;pointerEvents=0;fillColor=none;top=0;left=0;bottom=0;right=0;points=[[0,0.5],[1,0.5]];portConstraint=eastwest;" vertex="1" parent="O6rhdWlGDvvYx7ezGtEy-31">
          <mxGeometry y="60" width="360" height="30" as="geometry" />
        </mxCell>
        <mxCell id="O6rhdWlGDvvYx7ezGtEy-36" value="" style="shape=partialRectangle;connectable=0;fillColor=none;top=0;left=0;bottom=0;right=0;editable=1;overflow=hidden;" vertex="1" parent="O6rhdWlGDvvYx7ezGtEy-35">
          <mxGeometry width="30" height="30" as="geometry" />
        </mxCell>
        <mxCell id="O6rhdWlGDvvYx7ezGtEy-37" value="topic_white_id（bas_config_topic_white表的主键id）" style="shape=partialRectangle;connectable=0;fillColor=none;top=0;left=0;bottom=0;right=0;align=left;spacingLeft=6;overflow=hidden;" vertex="1" parent="O6rhdWlGDvvYx7ezGtEy-35">
          <mxGeometry x="30" width="330" height="30" as="geometry" />
        </mxCell>
        <mxCell id="O6rhdWlGDvvYx7ezGtEy-38" value="" style="shape=partialRectangle;collapsible=0;dropTarget=0;pointerEvents=0;fillColor=none;top=0;left=0;bottom=0;right=0;points=[[0,0.5],[1,0.5]];portConstraint=eastwest;" vertex="1" parent="O6rhdWlGDvvYx7ezGtEy-31">
          <mxGeometry y="90" width="360" height="20" as="geometry" />
        </mxCell>
        <mxCell id="O6rhdWlGDvvYx7ezGtEy-39" value="" style="shape=partialRectangle;connectable=0;fillColor=none;top=0;left=0;bottom=0;right=0;editable=1;overflow=hidden;" vertex="1" parent="O6rhdWlGDvvYx7ezGtEy-38">
          <mxGeometry width="30" height="20" as="geometry" />
        </mxCell>
        <mxCell id="O6rhdWlGDvvYx7ezGtEy-40" value="config_field_code（字段标识编码）与white_id 建立唯一索引" style="shape=partialRectangle;connectable=0;fillColor=none;top=0;left=0;bottom=0;right=0;align=left;spacingLeft=6;overflow=hidden;" vertex="1" parent="O6rhdWlGDvvYx7ezGtEy-38">
          <mxGeometry x="30" width="330" height="20" as="geometry" />
        </mxCell>
        <mxCell id="O6rhdWlGDvvYx7ezGtEy-41" value="" style="shape=partialRectangle;collapsible=0;dropTarget=0;pointerEvents=0;fillColor=none;top=0;left=0;bottom=0;right=0;points=[[0,0.5],[1,0.5]];portConstraint=eastwest;" vertex="1" parent="O6rhdWlGDvvYx7ezGtEy-31">
          <mxGeometry y="110" width="360" height="30" as="geometry" />
        </mxCell>
        <mxCell id="O6rhdWlGDvvYx7ezGtEy-42" value="" style="shape=partialRectangle;connectable=0;fillColor=none;top=0;left=0;bottom=0;right=0;editable=1;overflow=hidden;" vertex="1" parent="O6rhdWlGDvvYx7ezGtEy-41">
          <mxGeometry width="30" height="30" as="geometry" />
        </mxCell>
        <mxCell id="O6rhdWlGDvvYx7ezGtEy-43" value="config_field_name（字段名称：英文）" style="shape=partialRectangle;connectable=0;fillColor=none;top=0;left=0;bottom=0;right=0;align=left;spacingLeft=6;overflow=hidden;" vertex="1" parent="O6rhdWlGDvvYx7ezGtEy-41">
          <mxGeometry x="30" width="330" height="30" as="geometry" />
        </mxCell>
        <mxCell id="O6rhdWlGDvvYx7ezGtEy-44" value="" style="shape=partialRectangle;collapsible=0;dropTarget=0;pointerEvents=0;fillColor=none;top=0;left=0;bottom=0;right=0;points=[[0,0.5],[1,0.5]];portConstraint=eastwest;" vertex="1" parent="O6rhdWlGDvvYx7ezGtEy-31">
          <mxGeometry y="140" width="360" height="30" as="geometry" />
        </mxCell>
        <mxCell id="O6rhdWlGDvvYx7ezGtEy-45" value="" style="shape=partialRectangle;connectable=0;fillColor=none;top=0;left=0;bottom=0;right=0;editable=1;overflow=hidden;" vertex="1" parent="O6rhdWlGDvvYx7ezGtEy-44">
          <mxGeometry width="30" height="30" as="geometry" />
        </mxCell>
        <mxCell id="O6rhdWlGDvvYx7ezGtEy-46" value="config_field_desc（字段描述）" style="shape=partialRectangle;connectable=0;fillColor=none;top=0;left=0;bottom=0;right=0;align=left;spacingLeft=6;overflow=hidden;" vertex="1" parent="O6rhdWlGDvvYx7ezGtEy-44">
          <mxGeometry x="30" width="330" height="30" as="geometry" />
        </mxCell>
        <mxCell id="O6rhdWlGDvvYx7ezGtEy-47" value="" style="shape=partialRectangle;collapsible=0;dropTarget=0;pointerEvents=0;fillColor=none;top=0;left=0;bottom=0;right=0;points=[[0,0.5],[1,0.5]];portConstraint=eastwest;" vertex="1" parent="O6rhdWlGDvvYx7ezGtEy-31">
          <mxGeometry y="170" width="360" height="30" as="geometry" />
        </mxCell>
        <mxCell id="O6rhdWlGDvvYx7ezGtEy-48" value="" style="shape=partialRectangle;connectable=0;fillColor=none;top=0;left=0;bottom=0;right=0;editable=1;overflow=hidden;" vertex="1" parent="O6rhdWlGDvvYx7ezGtEy-47">
          <mxGeometry width="30" height="30" as="geometry" />
        </mxCell>
        <mxCell id="O6rhdWlGDvvYx7ezGtEy-49" value="config_field_type（字段数据类型）" style="shape=partialRectangle;connectable=0;fillColor=none;top=0;left=0;bottom=0;right=0;align=left;spacingLeft=6;overflow=hidden;" vertex="1" parent="O6rhdWlGDvvYx7ezGtEy-47">
          <mxGeometry x="30" width="330" height="30" as="geometry" />
        </mxCell>
        <mxCell id="O6rhdWlGDvvYx7ezGtEy-50" value="" style="shape=partialRectangle;collapsible=0;dropTarget=0;pointerEvents=0;fillColor=none;top=0;left=0;bottom=0;right=0;points=[[0,0.5],[1,0.5]];portConstraint=eastwest;" vertex="1" parent="O6rhdWlGDvvYx7ezGtEy-31">
          <mxGeometry y="200" width="360" height="30" as="geometry" />
        </mxCell>
        <mxCell id="O6rhdWlGDvvYx7ezGtEy-51" value="" style="shape=partialRectangle;connectable=0;fillColor=none;top=0;left=0;bottom=0;right=0;editable=1;overflow=hidden;" vertex="1" parent="O6rhdWlGDvvYx7ezGtEy-50">
          <mxGeometry width="30" height="30" as="geometry" />
        </mxCell>
        <mxCell id="O6rhdWlGDvvYx7ezGtEy-52" value="config_field_default（字段默认值）" style="shape=partialRectangle;connectable=0;fillColor=none;top=0;left=0;bottom=0;right=0;align=left;spacingLeft=6;overflow=hidden;" vertex="1" parent="O6rhdWlGDvvYx7ezGtEy-50">
          <mxGeometry x="30" width="330" height="30" as="geometry" />
        </mxCell>
        <mxCell id="O6rhdWlGDvvYx7ezGtEy-53" value="" style="shape=partialRectangle;collapsible=0;dropTarget=0;pointerEvents=0;fillColor=none;top=0;left=0;bottom=0;right=0;points=[[0,0.5],[1,0.5]];portConstraint=eastwest;" vertex="1" parent="O6rhdWlGDvvYx7ezGtEy-31">
          <mxGeometry y="230" width="360" height="30" as="geometry" />
        </mxCell>
        <mxCell id="O6rhdWlGDvvYx7ezGtEy-54" value="" style="shape=partialRectangle;connectable=0;fillColor=none;top=0;left=0;bottom=0;right=0;editable=1;overflow=hidden;" vertex="1" parent="O6rhdWlGDvvYx7ezGtEy-53">
          <mxGeometry width="30" height="30" as="geometry" />
        </mxCell>
        <mxCell id="O6rhdWlGDvvYx7ezGtEy-55" value="config_field_length（字段最大长度）" style="shape=partialRectangle;connectable=0;fillColor=none;top=0;left=0;bottom=0;right=0;align=left;spacingLeft=6;overflow=hidden;" vertex="1" parent="O6rhdWlGDvvYx7ezGtEy-53">
          <mxGeometry x="30" width="330" height="30" as="geometry" />
        </mxCell>
        <mxCell id="O6rhdWlGDvvYx7ezGtEy-56" value="" style="shape=partialRectangle;collapsible=0;dropTarget=0;pointerEvents=0;fillColor=none;top=0;left=0;bottom=0;right=0;points=[[0,0.5],[1,0.5]];portConstraint=eastwest;" vertex="1" parent="O6rhdWlGDvvYx7ezGtEy-31">
          <mxGeometry y="260" width="360" height="30" as="geometry" />
        </mxCell>
        <mxCell id="O6rhdWlGDvvYx7ezGtEy-57" value="" style="shape=partialRectangle;connectable=0;fillColor=none;top=0;left=0;bottom=0;right=0;editable=1;overflow=hidden;" vertex="1" parent="O6rhdWlGDvvYx7ezGtEy-56">
          <mxGeometry width="30" height="30" as="geometry" />
        </mxCell>
        <mxCell id="O6rhdWlGDvvYx7ezGtEy-58" value="expression（字段校验的表达式）" style="shape=partialRectangle;connectable=0;fillColor=none;top=0;left=0;bottom=0;right=0;align=left;spacingLeft=6;overflow=hidden;" vertex="1" parent="O6rhdWlGDvvYx7ezGtEy-56">
          <mxGeometry x="30" width="330" height="30" as="geometry" />
        </mxCell>
        <mxCell id="O6rhdWlGDvvYx7ezGtEy-59" value="" style="shape=partialRectangle;collapsible=0;dropTarget=0;pointerEvents=0;fillColor=none;top=0;left=0;bottom=0;right=0;points=[[0,0.5],[1,0.5]];portConstraint=eastwest;" vertex="1" parent="O6rhdWlGDvvYx7ezGtEy-31">
          <mxGeometry y="290" width="360" height="30" as="geometry" />
        </mxCell>
        <mxCell id="O6rhdWlGDvvYx7ezGtEy-60" value="" style="shape=partialRectangle;connectable=0;fillColor=none;top=0;left=0;bottom=0;right=0;editable=1;overflow=hidden;" vertex="1" parent="O6rhdWlGDvvYx7ezGtEy-59">
          <mxGeometry width="30" height="30" as="geometry" />
        </mxCell>
        <mxCell id="O6rhdWlGDvvYx7ezGtEy-61" value="config_field_not_null（是否必填）" style="shape=partialRectangle;connectable=0;fillColor=none;top=0;left=0;bottom=0;right=0;align=left;spacingLeft=6;overflow=hidden;" vertex="1" parent="O6rhdWlGDvvYx7ezGtEy-59">
          <mxGeometry x="30" width="330" height="30" as="geometry" />
        </mxCell>
        <mxCell id="O6rhdWlGDvvYx7ezGtEy-62" value="" style="shape=partialRectangle;collapsible=0;dropTarget=0;pointerEvents=0;fillColor=none;top=0;left=0;bottom=0;right=0;points=[[0,0.5],[1,0.5]];portConstraint=eastwest;" vertex="1" parent="O6rhdWlGDvvYx7ezGtEy-31">
          <mxGeometry y="320" width="360" height="30" as="geometry" />
        </mxCell>
        <mxCell id="O6rhdWlGDvvYx7ezGtEy-63" value="" style="shape=partialRectangle;connectable=0;fillColor=none;top=0;left=0;bottom=0;right=0;editable=1;overflow=hidden;" vertex="1" parent="O6rhdWlGDvvYx7ezGtEy-62">
          <mxGeometry width="30" height="30" as="geometry" />
        </mxCell>
        <mxCell id="O6rhdWlGDvvYx7ezGtEy-64" value="deleted（是否删除）" style="shape=partialRectangle;connectable=0;fillColor=none;top=0;left=0;bottom=0;right=0;align=left;spacingLeft=6;overflow=hidden;" vertex="1" parent="O6rhdWlGDvvYx7ezGtEy-62">
          <mxGeometry x="30" width="330" height="30" as="geometry" />
        </mxCell>
        <mxCell id="O6rhdWlGDvvYx7ezGtEy-65" value="" style="shape=partialRectangle;collapsible=0;dropTarget=0;pointerEvents=0;fillColor=none;top=0;left=0;bottom=0;right=0;points=[[0,0.5],[1,0.5]];portConstraint=eastwest;" vertex="1" parent="O6rhdWlGDvvYx7ezGtEy-31">
          <mxGeometry y="350" width="360" height="30" as="geometry" />
        </mxCell>
        <mxCell id="O6rhdWlGDvvYx7ezGtEy-66" value="" style="shape=partialRectangle;connectable=0;fillColor=none;top=0;left=0;bottom=0;right=0;editable=1;overflow=hidden;" vertex="1" parent="O6rhdWlGDvvYx7ezGtEy-65">
          <mxGeometry width="30" height="30" as="geometry" />
        </mxCell>
        <mxCell id="O6rhdWlGDvvYx7ezGtEy-67" value="deleted_at（软删除时间）" style="shape=partialRectangle;connectable=0;fillColor=none;top=0;left=0;bottom=0;right=0;align=left;spacingLeft=6;overflow=hidden;" vertex="1" parent="O6rhdWlGDvvYx7ezGtEy-65">
          <mxGeometry x="30" width="330" height="30" as="geometry" />
        </mxCell>
        <mxCell id="O6rhdWlGDvvYx7ezGtEy-68" value="" style="shape=partialRectangle;collapsible=0;dropTarget=0;pointerEvents=0;fillColor=none;top=0;left=0;bottom=0;right=0;points=[[0,0.5],[1,0.5]];portConstraint=eastwest;" vertex="1" parent="O6rhdWlGDvvYx7ezGtEy-31">
          <mxGeometry y="380" width="360" height="30" as="geometry" />
        </mxCell>
        <mxCell id="O6rhdWlGDvvYx7ezGtEy-69" value="" style="shape=partialRectangle;connectable=0;fillColor=none;top=0;left=0;bottom=0;right=0;editable=1;overflow=hidden;" vertex="1" parent="O6rhdWlGDvvYx7ezGtEy-68">
          <mxGeometry width="30" height="30" as="geometry" />
        </mxCell>
        <mxCell id="O6rhdWlGDvvYx7ezGtEy-70" value="updated_at（更新时间）" style="shape=partialRectangle;connectable=0;fillColor=none;top=0;left=0;bottom=0;right=0;align=left;spacingLeft=6;overflow=hidden;" vertex="1" parent="O6rhdWlGDvvYx7ezGtEy-68">
          <mxGeometry x="30" width="330" height="30" as="geometry" />
        </mxCell>
        <mxCell id="O6rhdWlGDvvYx7ezGtEy-71" value="" style="shape=partialRectangle;collapsible=0;dropTarget=0;pointerEvents=0;fillColor=none;top=0;left=0;bottom=0;right=0;points=[[0,0.5],[1,0.5]];portConstraint=eastwest;" vertex="1" parent="O6rhdWlGDvvYx7ezGtEy-31">
          <mxGeometry y="410" width="360" height="30" as="geometry" />
        </mxCell>
        <mxCell id="O6rhdWlGDvvYx7ezGtEy-72" value="" style="shape=partialRectangle;connectable=0;fillColor=none;top=0;left=0;bottom=0;right=0;editable=1;overflow=hidden;" vertex="1" parent="O6rhdWlGDvvYx7ezGtEy-71">
          <mxGeometry width="30" height="30" as="geometry" />
        </mxCell>
        <mxCell id="O6rhdWlGDvvYx7ezGtEy-73" value="created_at（创建时间）" style="shape=partialRectangle;connectable=0;fillColor=none;top=0;left=0;bottom=0;right=0;align=left;spacingLeft=6;overflow=hidden;" vertex="1" parent="O6rhdWlGDvvYx7ezGtEy-71">
          <mxGeometry x="30" width="330" height="30" as="geometry" />
        </mxCell>
        <mxCell id="O6rhdWlGDvvYx7ezGtEy-74" value="config_tpl_field 表中，存储模板对应的字段属性，针对每个版本都有对应的描述，" style="text;html=1;strokeColor=none;fillColor=none;align=center;verticalAlign=middle;whiteSpace=wrap;rounded=0;" vertex="1" parent="WIyWlLk6GJQsqaUBKTNV-1">
          <mxGeometry x="890" y="100" width="150" height="90" as="geometry" />
        </mxCell>
        <mxCell id="O6rhdWlGDvvYx7ezGtEy-75" value="bas_config" style="shape=table;startSize=30;container=1;collapsible=1;childLayout=tableLayout;fixedRows=1;rowLines=0;fontStyle=1;align=center;resizeLast=1;" vertex="1" parent="WIyWlLk6GJQsqaUBKTNV-1">
          <mxGeometry x="470" y="270" width="250" height="670" as="geometry" />
        </mxCell>
        <mxCell id="O6rhdWlGDvvYx7ezGtEy-76" value="" style="shape=partialRectangle;collapsible=0;dropTarget=0;pointerEvents=0;fillColor=none;top=0;left=0;bottom=1;right=0;points=[[0,0.5],[1,0.5]];portConstraint=eastwest;" vertex="1" parent="O6rhdWlGDvvYx7ezGtEy-75">
          <mxGeometry y="30" width="250" height="30" as="geometry" />
        </mxCell>
        <mxCell id="O6rhdWlGDvvYx7ezGtEy-77" value="PK" style="shape=partialRectangle;connectable=0;fillColor=none;top=0;left=0;bottom=0;right=0;fontStyle=1;overflow=hidden;" vertex="1" parent="O6rhdWlGDvvYx7ezGtEy-76">
          <mxGeometry width="30" height="30" as="geometry" />
        </mxCell>
        <mxCell id="O6rhdWlGDvvYx7ezGtEy-78" value="id" style="shape=partialRectangle;connectable=0;fillColor=none;top=0;left=0;bottom=0;right=0;align=left;spacingLeft=6;fontStyle=5;overflow=hidden;" vertex="1" parent="O6rhdWlGDvvYx7ezGtEy-76">
          <mxGeometry x="30" width="220" height="30" as="geometry" />
        </mxCell>
        <mxCell id="O6rhdWlGDvvYx7ezGtEy-79" value="" style="shape=partialRectangle;collapsible=0;dropTarget=0;pointerEvents=0;fillColor=none;top=0;left=0;bottom=0;right=0;points=[[0,0.5],[1,0.5]];portConstraint=eastwest;" vertex="1" parent="O6rhdWlGDvvYx7ezGtEy-75">
          <mxGeometry y="60" width="250" height="30" as="geometry" />
        </mxCell>
        <mxCell id="O6rhdWlGDvvYx7ezGtEy-80" value="" style="shape=partialRectangle;connectable=0;fillColor=none;top=0;left=0;bottom=0;right=0;editable=1;overflow=hidden;" vertex="1" parent="O6rhdWlGDvvYx7ezGtEy-79">
          <mxGeometry width="30" height="30" as="geometry" />
        </mxCell>
        <mxCell id="O6rhdWlGDvvYx7ezGtEy-81" value="topic_code（配置主题编码）" style="shape=partialRectangle;connectable=0;fillColor=none;top=0;left=0;bottom=0;right=0;align=left;spacingLeft=6;overflow=hidden;" vertex="1" parent="O6rhdWlGDvvYx7ezGtEy-79">
          <mxGeometry x="30" width="220" height="30" as="geometry" />
        </mxCell>
        <mxCell id="O6rhdWlGDvvYx7ezGtEy-82" value="" style="shape=partialRectangle;collapsible=0;dropTarget=0;pointerEvents=0;fillColor=none;top=0;left=0;bottom=0;right=0;points=[[0,0.5],[1,0.5]];portConstraint=eastwest;" vertex="1" parent="O6rhdWlGDvvYx7ezGtEy-75">
          <mxGeometry y="90" width="250" height="30" as="geometry" />
        </mxCell>
        <mxCell id="O6rhdWlGDvvYx7ezGtEy-83" value="" style="shape=partialRectangle;connectable=0;fillColor=none;top=0;left=0;bottom=0;right=0;editable=1;overflow=hidden;" vertex="1" parent="O6rhdWlGDvvYx7ezGtEy-82">
          <mxGeometry width="30" height="30" as="geometry" />
        </mxCell>
        <mxCell id="O6rhdWlGDvvYx7ezGtEy-84" value="level_code（层级编码，如 city）" style="shape=partialRectangle;connectable=0;fillColor=none;top=0;left=0;bottom=0;right=0;align=left;spacingLeft=6;overflow=hidden;" vertex="1" parent="O6rhdWlGDvvYx7ezGtEy-82">
          <mxGeometry x="30" width="220" height="30" as="geometry" />
        </mxCell>
        <mxCell id="O6rhdWlGDvvYx7ezGtEy-85" value="" style="shape=partialRectangle;collapsible=0;dropTarget=0;pointerEvents=0;fillColor=none;top=0;left=0;bottom=0;right=0;points=[[0,0.5],[1,0.5]];portConstraint=eastwest;" vertex="1" parent="O6rhdWlGDvvYx7ezGtEy-75">
          <mxGeometry y="120" width="250" height="30" as="geometry" />
        </mxCell>
        <mxCell id="O6rhdWlGDvvYx7ezGtEy-86" value="" style="shape=partialRectangle;connectable=0;fillColor=none;top=0;left=0;bottom=0;right=0;editable=1;overflow=hidden;" vertex="1" parent="O6rhdWlGDvvYx7ezGtEy-85">
          <mxGeometry width="30" height="30" as="geometry" />
        </mxCell>
        <mxCell id="O6rhdWlGDvvYx7ezGtEy-87" value="target_id（作用目标id，如 城市id）" style="shape=partialRectangle;connectable=0;fillColor=none;top=0;left=0;bottom=0;right=0;align=left;spacingLeft=6;overflow=hidden;" vertex="1" parent="O6rhdWlGDvvYx7ezGtEy-85">
          <mxGeometry x="30" width="220" height="30" as="geometry" />
        </mxCell>
        <mxCell id="O6rhdWlGDvvYx7ezGtEy-88" value="" style="shape=partialRectangle;collapsible=0;dropTarget=0;pointerEvents=0;fillColor=none;top=0;left=0;bottom=0;right=0;points=[[0,0.5],[1,0.5]];portConstraint=eastwest;" vertex="1" parent="O6rhdWlGDvvYx7ezGtEy-75">
          <mxGeometry y="150" width="250" height="30" as="geometry" />
        </mxCell>
        <mxCell id="O6rhdWlGDvvYx7ezGtEy-89" value="" style="shape=partialRectangle;connectable=0;fillColor=none;top=0;left=0;bottom=0;right=0;editable=1;overflow=hidden;" vertex="1" parent="O6rhdWlGDvvYx7ezGtEy-88">
          <mxGeometry width="30" height="30" as="geometry" />
        </mxCell>
        <mxCell id="O6rhdWlGDvvYx7ezGtEy-90" value="tenant_id（租户id）" style="shape=partialRectangle;connectable=0;fillColor=none;top=0;left=0;bottom=0;right=0;align=left;spacingLeft=6;overflow=hidden;" vertex="1" parent="O6rhdWlGDvvYx7ezGtEy-88">
          <mxGeometry x="30" width="220" height="30" as="geometry" />
        </mxCell>
        <mxCell id="O6rhdWlGDvvYx7ezGtEy-91" value="" style="shape=partialRectangle;collapsible=0;dropTarget=0;pointerEvents=0;fillColor=none;top=0;left=0;bottom=0;right=0;points=[[0,0.5],[1,0.5]];portConstraint=eastwest;" vertex="1" parent="O6rhdWlGDvvYx7ezGtEy-75">
          <mxGeometry y="180" width="250" height="30" as="geometry" />
        </mxCell>
        <mxCell id="O6rhdWlGDvvYx7ezGtEy-92" value="" style="shape=partialRectangle;connectable=0;fillColor=none;top=0;left=0;bottom=0;right=0;editable=1;overflow=hidden;" vertex="1" parent="O6rhdWlGDvvYx7ezGtEy-91">
          <mxGeometry width="30" height="30" as="geometry" />
        </mxCell>
        <mxCell id="O6rhdWlGDvvYx7ezGtEy-93" value="priority（排序值）" style="shape=partialRectangle;connectable=0;fillColor=none;top=0;left=0;bottom=0;right=0;align=left;spacingLeft=6;overflow=hidden;" vertex="1" parent="O6rhdWlGDvvYx7ezGtEy-91">
          <mxGeometry x="30" width="220" height="30" as="geometry" />
        </mxCell>
        <mxCell id="O6rhdWlGDvvYx7ezGtEy-94" value="" style="shape=partialRectangle;collapsible=0;dropTarget=0;pointerEvents=0;fillColor=none;top=0;left=0;bottom=0;right=0;points=[[0,0.5],[1,0.5]];portConstraint=eastwest;" vertex="1" parent="O6rhdWlGDvvYx7ezGtEy-75">
          <mxGeometry y="210" width="250" height="30" as="geometry" />
        </mxCell>
        <mxCell id="O6rhdWlGDvvYx7ezGtEy-95" value="" style="shape=partialRectangle;connectable=0;fillColor=none;top=0;left=0;bottom=0;right=0;editable=1;overflow=hidden;" vertex="1" parent="O6rhdWlGDvvYx7ezGtEy-94">
          <mxGeometry width="30" height="30" as="geometry" />
        </mxCell>
        <mxCell id="O6rhdWlGDvvYx7ezGtEy-96" value="content（json格式数据内容）" style="shape=partialRectangle;connectable=0;fillColor=none;top=0;left=0;bottom=0;right=0;align=left;spacingLeft=6;overflow=hidden;" vertex="1" parent="O6rhdWlGDvvYx7ezGtEy-94">
          <mxGeometry x="30" width="220" height="30" as="geometry" />
        </mxCell>
        <mxCell id="O6rhdWlGDvvYx7ezGtEy-97" value="" style="shape=partialRectangle;collapsible=0;dropTarget=0;pointerEvents=0;fillColor=none;top=0;left=0;bottom=0;right=0;points=[[0,0.5],[1,0.5]];portConstraint=eastwest;" vertex="1" parent="O6rhdWlGDvvYx7ezGtEy-75">
          <mxGeometry y="240" width="250" height="30" as="geometry" />
        </mxCell>
        <mxCell id="O6rhdWlGDvvYx7ezGtEy-98" value="" style="shape=partialRectangle;connectable=0;fillColor=none;top=0;left=0;bottom=0;right=0;editable=1;overflow=hidden;" vertex="1" parent="O6rhdWlGDvvYx7ezGtEy-97">
          <mxGeometry width="30" height="30" as="geometry" />
        </mxCell>
        <mxCell id="O6rhdWlGDvvYx7ezGtEy-99" value="scope_id（配置所属最外层配置id）" style="shape=partialRectangle;connectable=0;fillColor=none;top=0;left=0;bottom=0;right=0;align=left;spacingLeft=6;overflow=hidden;" vertex="1" parent="O6rhdWlGDvvYx7ezGtEy-97">
          <mxGeometry x="30" width="220" height="30" as="geometry" />
        </mxCell>
        <mxCell id="O6rhdWlGDvvYx7ezGtEy-100" value="" style="shape=partialRectangle;collapsible=0;dropTarget=0;pointerEvents=0;fillColor=none;top=0;left=0;bottom=0;right=0;points=[[0,0.5],[1,0.5]];portConstraint=eastwest;" vertex="1" parent="O6rhdWlGDvvYx7ezGtEy-75">
          <mxGeometry y="270" width="250" height="30" as="geometry" />
        </mxCell>
        <mxCell id="O6rhdWlGDvvYx7ezGtEy-101" value="" style="shape=partialRectangle;connectable=0;fillColor=none;top=0;left=0;bottom=0;right=0;editable=1;overflow=hidden;" vertex="1" parent="O6rhdWlGDvvYx7ezGtEy-100">
          <mxGeometry width="30" height="30" as="geometry" />
        </mxCell>
        <mxCell id="O6rhdWlGDvvYx7ezGtEy-102" value="parent_id（父级id）" style="shape=partialRectangle;connectable=0;fillColor=none;top=0;left=0;bottom=0;right=0;align=left;spacingLeft=6;overflow=hidden;" vertex="1" parent="O6rhdWlGDvvYx7ezGtEy-100">
          <mxGeometry x="30" width="220" height="30" as="geometry" />
        </mxCell>
        <mxCell id="O6rhdWlGDvvYx7ezGtEy-103" value="" style="shape=partialRectangle;collapsible=0;dropTarget=0;pointerEvents=0;fillColor=none;top=0;left=0;bottom=0;right=0;points=[[0,0.5],[1,0.5]];portConstraint=eastwest;" vertex="1" parent="O6rhdWlGDvvYx7ezGtEy-75">
          <mxGeometry y="300" width="250" height="30" as="geometry" />
        </mxCell>
        <mxCell id="O6rhdWlGDvvYx7ezGtEy-104" value="" style="shape=partialRectangle;connectable=0;fillColor=none;top=0;left=0;bottom=0;right=0;editable=1;overflow=hidden;" vertex="1" parent="O6rhdWlGDvvYx7ezGtEy-103">
          <mxGeometry width="30" height="30" as="geometry" />
        </mxCell>
        <mxCell id="O6rhdWlGDvvYx7ezGtEy-105" value="deleted（是否删除）" style="shape=partialRectangle;connectable=0;fillColor=none;top=0;left=0;bottom=0;right=0;align=left;spacingLeft=6;overflow=hidden;" vertex="1" parent="O6rhdWlGDvvYx7ezGtEy-103">
          <mxGeometry x="30" width="220" height="30" as="geometry" />
        </mxCell>
        <mxCell id="O6rhdWlGDvvYx7ezGtEy-106" value="" style="shape=partialRectangle;collapsible=0;dropTarget=0;pointerEvents=0;fillColor=none;top=0;left=0;bottom=0;right=0;points=[[0,0.5],[1,0.5]];portConstraint=eastwest;" vertex="1" parent="O6rhdWlGDvvYx7ezGtEy-75">
          <mxGeometry y="330" width="250" height="30" as="geometry" />
        </mxCell>
        <mxCell id="O6rhdWlGDvvYx7ezGtEy-107" value="" style="shape=partialRectangle;connectable=0;fillColor=none;top=0;left=0;bottom=0;right=0;editable=1;overflow=hidden;" vertex="1" parent="O6rhdWlGDvvYx7ezGtEy-106">
          <mxGeometry width="30" height="30" as="geometry" />
        </mxCell>
        <mxCell id="O6rhdWlGDvvYx7ezGtEy-108" value="remark（备注）" style="shape=partialRectangle;connectable=0;fillColor=none;top=0;left=0;bottom=0;right=0;align=left;spacingLeft=6;overflow=hidden;" vertex="1" parent="O6rhdWlGDvvYx7ezGtEy-106">
          <mxGeometry x="30" width="220" height="30" as="geometry" />
        </mxCell>
        <mxCell id="O6rhdWlGDvvYx7ezGtEy-109" value="" style="shape=partialRectangle;collapsible=0;dropTarget=0;pointerEvents=0;fillColor=none;top=0;left=0;bottom=0;right=0;points=[[0,0.5],[1,0.5]];portConstraint=eastwest;" vertex="1" parent="O6rhdWlGDvvYx7ezGtEy-75">
          <mxGeometry y="360" width="250" height="30" as="geometry" />
        </mxCell>
        <mxCell id="O6rhdWlGDvvYx7ezGtEy-110" value="" style="shape=partialRectangle;connectable=0;fillColor=none;top=0;left=0;bottom=0;right=0;editable=1;overflow=hidden;" vertex="1" parent="O6rhdWlGDvvYx7ezGtEy-109">
          <mxGeometry width="30" height="30" as="geometry" />
        </mxCell>
        <mxCell id="O6rhdWlGDvvYx7ezGtEy-111" value="status（有效状态）" style="shape=partialRectangle;connectable=0;fillColor=none;top=0;left=0;bottom=0;right=0;align=left;spacingLeft=6;overflow=hidden;" vertex="1" parent="O6rhdWlGDvvYx7ezGtEy-109">
          <mxGeometry x="30" width="220" height="30" as="geometry" />
        </mxCell>
        <mxCell id="O6rhdWlGDvvYx7ezGtEy-112" value="" style="shape=partialRectangle;collapsible=0;dropTarget=0;pointerEvents=0;fillColor=none;top=0;left=0;bottom=0;right=0;points=[[0,0.5],[1,0.5]];portConstraint=eastwest;" vertex="1" parent="O6rhdWlGDvvYx7ezGtEy-75">
          <mxGeometry y="390" width="250" height="30" as="geometry" />
        </mxCell>
        <mxCell id="O6rhdWlGDvvYx7ezGtEy-113" value="" style="shape=partialRectangle;connectable=0;fillColor=none;top=0;left=0;bottom=0;right=0;editable=1;overflow=hidden;" vertex="1" parent="O6rhdWlGDvvYx7ezGtEy-112">
          <mxGeometry width="30" height="30" as="geometry" />
        </mxCell>
        <mxCell id="O6rhdWlGDvvYx7ezGtEy-114" value="begin_valid_date（有效时间起）" style="shape=partialRectangle;connectable=0;fillColor=none;top=0;left=0;bottom=0;right=0;align=left;spacingLeft=6;overflow=hidden;" vertex="1" parent="O6rhdWlGDvvYx7ezGtEy-112">
          <mxGeometry x="30" width="220" height="30" as="geometry" />
        </mxCell>
        <mxCell id="O6rhdWlGDvvYx7ezGtEy-115" value="" style="shape=partialRectangle;collapsible=0;dropTarget=0;pointerEvents=0;fillColor=none;top=0;left=0;bottom=0;right=0;points=[[0,0.5],[1,0.5]];portConstraint=eastwest;" vertex="1" parent="O6rhdWlGDvvYx7ezGtEy-75">
          <mxGeometry y="420" width="250" height="30" as="geometry" />
        </mxCell>
        <mxCell id="O6rhdWlGDvvYx7ezGtEy-116" value="" style="shape=partialRectangle;connectable=0;fillColor=none;top=0;left=0;bottom=0;right=0;editable=1;overflow=hidden;" vertex="1" parent="O6rhdWlGDvvYx7ezGtEy-115">
          <mxGeometry width="30" height="30" as="geometry" />
        </mxCell>
        <mxCell id="O6rhdWlGDvvYx7ezGtEy-117" value="end_valid_date（有效时间止）" style="shape=partialRectangle;connectable=0;fillColor=none;top=0;left=0;bottom=0;right=0;align=left;spacingLeft=6;overflow=hidden;" vertex="1" parent="O6rhdWlGDvvYx7ezGtEy-115">
          <mxGeometry x="30" width="220" height="30" as="geometry" />
        </mxCell>
        <mxCell id="O6rhdWlGDvvYx7ezGtEy-118" value="" style="shape=partialRectangle;collapsible=0;dropTarget=0;pointerEvents=0;fillColor=none;top=0;left=0;bottom=0;right=0;points=[[0,0.5],[1,0.5]];portConstraint=eastwest;" vertex="1" parent="O6rhdWlGDvvYx7ezGtEy-75">
          <mxGeometry y="450" width="250" height="30" as="geometry" />
        </mxCell>
        <mxCell id="O6rhdWlGDvvYx7ezGtEy-119" value="" style="shape=partialRectangle;connectable=0;fillColor=none;top=0;left=0;bottom=0;right=0;editable=1;overflow=hidden;" vertex="1" parent="O6rhdWlGDvvYx7ezGtEy-118">
          <mxGeometry width="30" height="30" as="geometry" />
        </mxCell>
        <mxCell id="O6rhdWlGDvvYx7ezGtEy-120" value="creator_code" style="shape=partialRectangle;connectable=0;fillColor=none;top=0;left=0;bottom=0;right=0;align=left;spacingLeft=6;overflow=hidden;" vertex="1" parent="O6rhdWlGDvvYx7ezGtEy-118">
          <mxGeometry x="30" width="220" height="30" as="geometry" />
        </mxCell>
        <mxCell id="O6rhdWlGDvvYx7ezGtEy-121" value="" style="shape=partialRectangle;collapsible=0;dropTarget=0;pointerEvents=0;fillColor=none;top=0;left=0;bottom=0;right=0;points=[[0,0.5],[1,0.5]];portConstraint=eastwest;" vertex="1" parent="O6rhdWlGDvvYx7ezGtEy-75">
          <mxGeometry y="480" width="250" height="30" as="geometry" />
        </mxCell>
        <mxCell id="O6rhdWlGDvvYx7ezGtEy-122" value="" style="shape=partialRectangle;connectable=0;fillColor=none;top=0;left=0;bottom=0;right=0;editable=1;overflow=hidden;" vertex="1" parent="O6rhdWlGDvvYx7ezGtEy-121">
          <mxGeometry width="30" height="30" as="geometry" />
        </mxCell>
        <mxCell id="O6rhdWlGDvvYx7ezGtEy-123" value="creator_name" style="shape=partialRectangle;connectable=0;fillColor=none;top=0;left=0;bottom=0;right=0;align=left;spacingLeft=6;overflow=hidden;" vertex="1" parent="O6rhdWlGDvvYx7ezGtEy-121">
          <mxGeometry x="30" width="220" height="30" as="geometry" />
        </mxCell>
        <mxCell id="O6rhdWlGDvvYx7ezGtEy-124" value="" style="shape=partialRectangle;collapsible=0;dropTarget=0;pointerEvents=0;fillColor=none;top=0;left=0;bottom=0;right=0;points=[[0,0.5],[1,0.5]];portConstraint=eastwest;" vertex="1" parent="O6rhdWlGDvvYx7ezGtEy-75">
          <mxGeometry y="510" width="250" height="30" as="geometry" />
        </mxCell>
        <mxCell id="O6rhdWlGDvvYx7ezGtEy-125" value="" style="shape=partialRectangle;connectable=0;fillColor=none;top=0;left=0;bottom=0;right=0;editable=1;overflow=hidden;" vertex="1" parent="O6rhdWlGDvvYx7ezGtEy-124">
          <mxGeometry width="30" height="30" as="geometry" />
        </mxCell>
        <mxCell id="O6rhdWlGDvvYx7ezGtEy-126" value="created_at" style="shape=partialRectangle;connectable=0;fillColor=none;top=0;left=0;bottom=0;right=0;align=left;spacingLeft=6;overflow=hidden;" vertex="1" parent="O6rhdWlGDvvYx7ezGtEy-124">
          <mxGeometry x="30" width="220" height="30" as="geometry" />
        </mxCell>
        <mxCell id="O6rhdWlGDvvYx7ezGtEy-127" value="" style="shape=partialRectangle;collapsible=0;dropTarget=0;pointerEvents=0;fillColor=none;top=0;left=0;bottom=0;right=0;points=[[0,0.5],[1,0.5]];portConstraint=eastwest;" vertex="1" parent="O6rhdWlGDvvYx7ezGtEy-75">
          <mxGeometry y="540" width="250" height="30" as="geometry" />
        </mxCell>
        <mxCell id="O6rhdWlGDvvYx7ezGtEy-128" value="" style="shape=partialRectangle;connectable=0;fillColor=none;top=0;left=0;bottom=0;right=0;editable=1;overflow=hidden;" vertex="1" parent="O6rhdWlGDvvYx7ezGtEy-127">
          <mxGeometry width="30" height="30" as="geometry" />
        </mxCell>
        <mxCell id="O6rhdWlGDvvYx7ezGtEy-129" value="modifier_code" style="shape=partialRectangle;connectable=0;fillColor=none;top=0;left=0;bottom=0;right=0;align=left;spacingLeft=6;overflow=hidden;" vertex="1" parent="O6rhdWlGDvvYx7ezGtEy-127">
          <mxGeometry x="30" width="220" height="30" as="geometry" />
        </mxCell>
        <mxCell id="O6rhdWlGDvvYx7ezGtEy-130" value="" style="shape=partialRectangle;collapsible=0;dropTarget=0;pointerEvents=0;fillColor=none;top=0;left=0;bottom=0;right=0;points=[[0,0.5],[1,0.5]];portConstraint=eastwest;" vertex="1" parent="O6rhdWlGDvvYx7ezGtEy-75">
          <mxGeometry y="570" width="250" height="30" as="geometry" />
        </mxCell>
        <mxCell id="O6rhdWlGDvvYx7ezGtEy-131" value="" style="shape=partialRectangle;connectable=0;fillColor=none;top=0;left=0;bottom=0;right=0;editable=1;overflow=hidden;" vertex="1" parent="O6rhdWlGDvvYx7ezGtEy-130">
          <mxGeometry width="30" height="30" as="geometry" />
        </mxCell>
        <mxCell id="O6rhdWlGDvvYx7ezGtEy-132" value="modifier_name" style="shape=partialRectangle;connectable=0;fillColor=none;top=0;left=0;bottom=0;right=0;align=left;spacingLeft=6;overflow=hidden;" vertex="1" parent="O6rhdWlGDvvYx7ezGtEy-130">
          <mxGeometry x="30" width="220" height="30" as="geometry" />
        </mxCell>
        <mxCell id="O6rhdWlGDvvYx7ezGtEy-133" value="" style="shape=partialRectangle;collapsible=0;dropTarget=0;pointerEvents=0;fillColor=none;top=0;left=0;bottom=0;right=0;points=[[0,0.5],[1,0.5]];portConstraint=eastwest;" vertex="1" parent="O6rhdWlGDvvYx7ezGtEy-75">
          <mxGeometry y="600" width="250" height="30" as="geometry" />
        </mxCell>
        <mxCell id="O6rhdWlGDvvYx7ezGtEy-134" value="" style="shape=partialRectangle;connectable=0;fillColor=none;top=0;left=0;bottom=0;right=0;editable=1;overflow=hidden;" vertex="1" parent="O6rhdWlGDvvYx7ezGtEy-133">
          <mxGeometry width="30" height="30" as="geometry" />
        </mxCell>
        <mxCell id="O6rhdWlGDvvYx7ezGtEy-135" value="last_modified_at" style="shape=partialRectangle;connectable=0;fillColor=none;top=0;left=0;bottom=0;right=0;align=left;spacingLeft=6;overflow=hidden;" vertex="1" parent="O6rhdWlGDvvYx7ezGtEy-133">
          <mxGeometry x="30" width="220" height="30" as="geometry" />
        </mxCell>
        <mxCell id="O6rhdWlGDvvYx7ezGtEy-136" value="" style="shape=partialRectangle;collapsible=0;dropTarget=0;pointerEvents=0;fillColor=none;top=0;left=0;bottom=0;right=0;points=[[0,0.5],[1,0.5]];portConstraint=eastwest;" vertex="1" parent="O6rhdWlGDvvYx7ezGtEy-75">
          <mxGeometry y="630" width="250" height="30" as="geometry" />
        </mxCell>
        <mxCell id="O6rhdWlGDvvYx7ezGtEy-137" value="" style="shape=partialRectangle;connectable=0;fillColor=none;top=0;left=0;bottom=0;right=0;editable=1;overflow=hidden;" vertex="1" parent="O6rhdWlGDvvYx7ezGtEy-136">
          <mxGeometry width="30" height="30" as="geometry" />
        </mxCell>
        <mxCell id="O6rhdWlGDvvYx7ezGtEy-138" value="version （版本号；新增字段）" style="shape=partialRectangle;connectable=0;fillColor=none;top=0;left=0;bottom=0;right=0;align=left;spacingLeft=6;overflow=hidden;" vertex="1" parent="O6rhdWlGDvvYx7ezGtEy-136">
          <mxGeometry x="30" width="220" height="30" as="geometry" />
        </mxCell>
        <mxCell id="O6rhdWlGDvvYx7ezGtEy-139" value="bas_config_topic_white" style="shape=table;startSize=30;container=1;collapsible=1;childLayout=tableLayout;fixedRows=1;rowLines=0;fontStyle=1;align=center;resizeLast=1;" vertex="1" parent="WIyWlLk6GJQsqaUBKTNV-1">
          <mxGeometry x="1210" y="180" width="340" height="520" as="geometry" />
        </mxCell>
        <mxCell id="O6rhdWlGDvvYx7ezGtEy-140" value="" style="shape=partialRectangle;collapsible=0;dropTarget=0;pointerEvents=0;fillColor=none;top=0;left=0;bottom=1;right=0;points=[[0,0.5],[1,0.5]];portConstraint=eastwest;" vertex="1" parent="O6rhdWlGDvvYx7ezGtEy-139">
          <mxGeometry y="30" width="340" height="30" as="geometry" />
        </mxCell>
        <mxCell id="O6rhdWlGDvvYx7ezGtEy-141" value="PK" style="shape=partialRectangle;connectable=0;fillColor=none;top=0;left=0;bottom=0;right=0;fontStyle=1;overflow=hidden;" vertex="1" parent="O6rhdWlGDvvYx7ezGtEy-140">
          <mxGeometry width="30" height="30" as="geometry" />
        </mxCell>
        <mxCell id="O6rhdWlGDvvYx7ezGtEy-142" value="id" style="shape=partialRectangle;connectable=0;fillColor=none;top=0;left=0;bottom=0;right=0;align=left;spacingLeft=6;fontStyle=5;overflow=hidden;" vertex="1" parent="O6rhdWlGDvvYx7ezGtEy-140">
          <mxGeometry x="30" width="310" height="30" as="geometry" />
        </mxCell>
        <mxCell id="O6rhdWlGDvvYx7ezGtEy-143" value="" style="shape=partialRectangle;collapsible=0;dropTarget=0;pointerEvents=0;fillColor=none;top=0;left=0;bottom=0;right=0;points=[[0,0.5],[1,0.5]];portConstraint=eastwest;" vertex="1" parent="O6rhdWlGDvvYx7ezGtEy-139">
          <mxGeometry y="60" width="340" height="30" as="geometry" />
        </mxCell>
        <mxCell id="O6rhdWlGDvvYx7ezGtEy-144" value="" style="shape=partialRectangle;connectable=0;fillColor=none;top=0;left=0;bottom=0;right=0;editable=1;overflow=hidden;" vertex="1" parent="O6rhdWlGDvvYx7ezGtEy-143">
          <mxGeometry width="30" height="30" as="geometry" />
        </mxCell>
        <mxCell id="O6rhdWlGDvvYx7ezGtEy-145" value="topic_code（配置主题编码）" style="shape=partialRectangle;connectable=0;fillColor=none;top=0;left=0;bottom=0;right=0;align=left;spacingLeft=6;overflow=hidden;" vertex="1" parent="O6rhdWlGDvvYx7ezGtEy-143">
          <mxGeometry x="30" width="310" height="30" as="geometry" />
        </mxCell>
        <mxCell id="O6rhdWlGDvvYx7ezGtEy-146" value="" style="shape=partialRectangle;collapsible=0;dropTarget=0;pointerEvents=0;fillColor=none;top=0;left=0;bottom=0;right=0;points=[[0,0.5],[1,0.5]];portConstraint=eastwest;" vertex="1" parent="O6rhdWlGDvvYx7ezGtEy-139">
          <mxGeometry y="90" width="340" height="30" as="geometry" />
        </mxCell>
        <mxCell id="O6rhdWlGDvvYx7ezGtEy-147" value="" style="shape=partialRectangle;connectable=0;fillColor=none;top=0;left=0;bottom=0;right=0;editable=1;overflow=hidden;" vertex="1" parent="O6rhdWlGDvvYx7ezGtEy-146">
          <mxGeometry width="30" height="30" as="geometry" />
        </mxCell>
        <mxCell id="O6rhdWlGDvvYx7ezGtEy-148" value="topic_name（配置主题名称）" style="shape=partialRectangle;connectable=0;fillColor=none;top=0;left=0;bottom=0;right=0;align=left;spacingLeft=6;overflow=hidden;" vertex="1" parent="O6rhdWlGDvvYx7ezGtEy-146">
          <mxGeometry x="30" width="310" height="30" as="geometry" />
        </mxCell>
        <mxCell id="O6rhdWlGDvvYx7ezGtEy-149" value="" style="shape=partialRectangle;collapsible=0;dropTarget=0;pointerEvents=0;fillColor=none;top=0;left=0;bottom=0;right=0;points=[[0,0.5],[1,0.5]];portConstraint=eastwest;" vertex="1" parent="O6rhdWlGDvvYx7ezGtEy-139">
          <mxGeometry y="120" width="340" height="30" as="geometry" />
        </mxCell>
        <mxCell id="O6rhdWlGDvvYx7ezGtEy-150" value="" style="shape=partialRectangle;connectable=0;fillColor=none;top=0;left=0;bottom=0;right=0;editable=1;overflow=hidden;" vertex="1" parent="O6rhdWlGDvvYx7ezGtEy-149">
          <mxGeometry width="30" height="30" as="geometry" />
        </mxCell>
        <mxCell id="O6rhdWlGDvvYx7ezGtEy-151" value="type_code（体系类型）" style="shape=partialRectangle;connectable=0;fillColor=none;top=0;left=0;bottom=0;right=0;align=left;spacingLeft=6;overflow=hidden;" vertex="1" parent="O6rhdWlGDvvYx7ezGtEy-149">
          <mxGeometry x="30" width="310" height="30" as="geometry" />
        </mxCell>
        <mxCell id="O6rhdWlGDvvYx7ezGtEy-152" value="" style="shape=partialRectangle;collapsible=0;dropTarget=0;pointerEvents=0;fillColor=none;top=0;left=0;bottom=0;right=0;points=[[0,0.5],[1,0.5]];portConstraint=eastwest;" vertex="1" parent="O6rhdWlGDvvYx7ezGtEy-139">
          <mxGeometry y="150" width="340" height="30" as="geometry" />
        </mxCell>
        <mxCell id="O6rhdWlGDvvYx7ezGtEy-153" value="" style="shape=partialRectangle;connectable=0;fillColor=none;top=0;left=0;bottom=0;right=0;editable=1;overflow=hidden;" vertex="1" parent="O6rhdWlGDvvYx7ezGtEy-152">
          <mxGeometry width="30" height="30" as="geometry" />
        </mxCell>
        <mxCell id="O6rhdWlGDvvYx7ezGtEy-154" value="is_must_json（是否必须json）" style="shape=partialRectangle;connectable=0;fillColor=none;top=0;left=0;bottom=0;right=0;align=left;spacingLeft=6;overflow=hidden;" vertex="1" parent="O6rhdWlGDvvYx7ezGtEy-152">
          <mxGeometry x="30" width="310" height="30" as="geometry" />
        </mxCell>
        <mxCell id="O6rhdWlGDvvYx7ezGtEy-155" value="" style="shape=partialRectangle;collapsible=0;dropTarget=0;pointerEvents=0;fillColor=none;top=0;left=0;bottom=0;right=0;points=[[0,0.5],[1,0.5]];portConstraint=eastwest;" vertex="1" parent="O6rhdWlGDvvYx7ezGtEy-139">
          <mxGeometry y="180" width="340" height="30" as="geometry" />
        </mxCell>
        <mxCell id="O6rhdWlGDvvYx7ezGtEy-156" value="" style="shape=partialRectangle;connectable=0;fillColor=none;top=0;left=0;bottom=0;right=0;editable=1;overflow=hidden;" vertex="1" parent="O6rhdWlGDvvYx7ezGtEy-155">
          <mxGeometry width="30" height="30" as="geometry" />
        </mxCell>
        <mxCell id="O6rhdWlGDvvYx7ezGtEy-157" value="status（有效状态：0 -不生效  1-为生效 ；默认为0）" style="shape=partialRectangle;connectable=0;fillColor=none;top=0;left=0;bottom=0;right=0;align=left;spacingLeft=6;overflow=hidden;" vertex="1" parent="O6rhdWlGDvvYx7ezGtEy-155">
          <mxGeometry x="30" width="310" height="30" as="geometry" />
        </mxCell>
        <mxCell id="O6rhdWlGDvvYx7ezGtEy-158" value="" style="shape=partialRectangle;collapsible=0;dropTarget=0;pointerEvents=0;fillColor=none;top=0;left=0;bottom=0;right=0;points=[[0,0.5],[1,0.5]];portConstraint=eastwest;" vertex="1" parent="O6rhdWlGDvvYx7ezGtEy-139">
          <mxGeometry y="210" width="340" height="30" as="geometry" />
        </mxCell>
        <mxCell id="O6rhdWlGDvvYx7ezGtEy-159" value="" style="shape=partialRectangle;connectable=0;fillColor=none;top=0;left=0;bottom=0;right=0;editable=1;overflow=hidden;" vertex="1" parent="O6rhdWlGDvvYx7ezGtEy-158">
          <mxGeometry width="30" height="30" as="geometry" />
        </mxCell>
        <mxCell id="O6rhdWlGDvvYx7ezGtEy-160" value="sort（排序sql）" style="shape=partialRectangle;connectable=0;fillColor=none;top=0;left=0;bottom=0;right=0;align=left;spacingLeft=6;overflow=hidden;" vertex="1" parent="O6rhdWlGDvvYx7ezGtEy-158">
          <mxGeometry x="30" width="310" height="30" as="geometry" />
        </mxCell>
        <mxCell id="O6rhdWlGDvvYx7ezGtEy-161" value="" style="shape=partialRectangle;collapsible=0;dropTarget=0;pointerEvents=0;fillColor=none;top=0;left=0;bottom=0;right=0;points=[[0,0.5],[1,0.5]];portConstraint=eastwest;" vertex="1" parent="O6rhdWlGDvvYx7ezGtEy-139">
          <mxGeometry y="240" width="340" height="30" as="geometry" />
        </mxCell>
        <mxCell id="O6rhdWlGDvvYx7ezGtEy-162" value="" style="shape=partialRectangle;connectable=0;fillColor=none;top=0;left=0;bottom=0;right=0;editable=1;overflow=hidden;" vertex="1" parent="O6rhdWlGDvvYx7ezGtEy-161">
          <mxGeometry width="30" height="30" as="geometry" />
        </mxCell>
        <mxCell id="O6rhdWlGDvvYx7ezGtEy-163" value="deleted（是否删除 0-否  其他-已删除）" style="shape=partialRectangle;connectable=0;fillColor=none;top=0;left=0;bottom=0;right=0;align=left;spacingLeft=6;overflow=hidden;" vertex="1" parent="O6rhdWlGDvvYx7ezGtEy-161">
          <mxGeometry x="30" width="310" height="30" as="geometry" />
        </mxCell>
        <mxCell id="O6rhdWlGDvvYx7ezGtEy-164" value="" style="shape=partialRectangle;collapsible=0;dropTarget=0;pointerEvents=0;fillColor=none;top=0;left=0;bottom=0;right=0;points=[[0,0.5],[1,0.5]];portConstraint=eastwest;" vertex="1" parent="O6rhdWlGDvvYx7ezGtEy-139">
          <mxGeometry y="270" width="340" height="30" as="geometry" />
        </mxCell>
        <mxCell id="O6rhdWlGDvvYx7ezGtEy-165" value="" style="shape=partialRectangle;connectable=0;fillColor=none;top=0;left=0;bottom=0;right=0;editable=1;overflow=hidden;" vertex="1" parent="O6rhdWlGDvvYx7ezGtEy-164">
          <mxGeometry width="30" height="30" as="geometry" />
        </mxCell>
        <mxCell id="O6rhdWlGDvvYx7ezGtEy-166" value="tenant_id（租户id）" style="shape=partialRectangle;connectable=0;fillColor=none;top=0;left=0;bottom=0;right=0;align=left;spacingLeft=6;overflow=hidden;" vertex="1" parent="O6rhdWlGDvvYx7ezGtEy-164">
          <mxGeometry x="30" width="310" height="30" as="geometry" />
        </mxCell>
        <mxCell id="O6rhdWlGDvvYx7ezGtEy-167" value="" style="shape=partialRectangle;collapsible=0;dropTarget=0;pointerEvents=0;fillColor=none;top=0;left=0;bottom=0;right=0;points=[[0,0.5],[1,0.5]];portConstraint=eastwest;" vertex="1" parent="O6rhdWlGDvvYx7ezGtEy-139">
          <mxGeometry y="300" width="340" height="30" as="geometry" />
        </mxCell>
        <mxCell id="O6rhdWlGDvvYx7ezGtEy-168" value="" style="shape=partialRectangle;connectable=0;fillColor=none;top=0;left=0;bottom=0;right=0;editable=1;overflow=hidden;" vertex="1" parent="O6rhdWlGDvvYx7ezGtEy-167">
          <mxGeometry width="30" height="30" as="geometry" />
        </mxCell>
        <mxCell id="O6rhdWlGDvvYx7ezGtEy-169" value="creator_code（创建用户代码）" style="shape=partialRectangle;connectable=0;fillColor=none;top=0;left=0;bottom=0;right=0;align=left;spacingLeft=6;overflow=hidden;" vertex="1" parent="O6rhdWlGDvvYx7ezGtEy-167">
          <mxGeometry x="30" width="310" height="30" as="geometry" />
        </mxCell>
        <mxCell id="O6rhdWlGDvvYx7ezGtEy-170" value="" style="shape=partialRectangle;collapsible=0;dropTarget=0;pointerEvents=0;fillColor=none;top=0;left=0;bottom=0;right=0;points=[[0,0.5],[1,0.5]];portConstraint=eastwest;" vertex="1" parent="O6rhdWlGDvvYx7ezGtEy-139">
          <mxGeometry y="330" width="340" height="30" as="geometry" />
        </mxCell>
        <mxCell id="O6rhdWlGDvvYx7ezGtEy-171" value="" style="shape=partialRectangle;connectable=0;fillColor=none;top=0;left=0;bottom=0;right=0;editable=1;overflow=hidden;" vertex="1" parent="O6rhdWlGDvvYx7ezGtEy-170">
          <mxGeometry width="30" height="30" as="geometry" />
        </mxCell>
        <mxCell id="O6rhdWlGDvvYx7ezGtEy-172" value="creator_name" style="shape=partialRectangle;connectable=0;fillColor=none;top=0;left=0;bottom=0;right=0;align=left;spacingLeft=6;overflow=hidden;" vertex="1" parent="O6rhdWlGDvvYx7ezGtEy-170">
          <mxGeometry x="30" width="310" height="30" as="geometry" />
        </mxCell>
        <mxCell id="O6rhdWlGDvvYx7ezGtEy-173" value="" style="shape=partialRectangle;collapsible=0;dropTarget=0;pointerEvents=0;fillColor=none;top=0;left=0;bottom=0;right=0;points=[[0,0.5],[1,0.5]];portConstraint=eastwest;" vertex="1" parent="O6rhdWlGDvvYx7ezGtEy-139">
          <mxGeometry y="360" width="340" height="30" as="geometry" />
        </mxCell>
        <mxCell id="O6rhdWlGDvvYx7ezGtEy-174" value="" style="shape=partialRectangle;connectable=0;fillColor=none;top=0;left=0;bottom=0;right=0;editable=1;overflow=hidden;" vertex="1" parent="O6rhdWlGDvvYx7ezGtEy-173">
          <mxGeometry width="30" height="30" as="geometry" />
        </mxCell>
        <mxCell id="O6rhdWlGDvvYx7ezGtEy-175" value="created_at" style="shape=partialRectangle;connectable=0;fillColor=none;top=0;left=0;bottom=0;right=0;align=left;spacingLeft=6;overflow=hidden;" vertex="1" parent="O6rhdWlGDvvYx7ezGtEy-173">
          <mxGeometry x="30" width="310" height="30" as="geometry" />
        </mxCell>
        <mxCell id="O6rhdWlGDvvYx7ezGtEy-176" value="" style="shape=partialRectangle;collapsible=0;dropTarget=0;pointerEvents=0;fillColor=none;top=0;left=0;bottom=0;right=0;points=[[0,0.5],[1,0.5]];portConstraint=eastwest;" vertex="1" parent="O6rhdWlGDvvYx7ezGtEy-139">
          <mxGeometry y="390" width="340" height="30" as="geometry" />
        </mxCell>
        <mxCell id="O6rhdWlGDvvYx7ezGtEy-177" value="" style="shape=partialRectangle;connectable=0;fillColor=none;top=0;left=0;bottom=0;right=0;editable=1;overflow=hidden;" vertex="1" parent="O6rhdWlGDvvYx7ezGtEy-176">
          <mxGeometry width="30" height="30" as="geometry" />
        </mxCell>
        <mxCell id="O6rhdWlGDvvYx7ezGtEy-178" value="modifier_code" style="shape=partialRectangle;connectable=0;fillColor=none;top=0;left=0;bottom=0;right=0;align=left;spacingLeft=6;overflow=hidden;" vertex="1" parent="O6rhdWlGDvvYx7ezGtEy-176">
          <mxGeometry x="30" width="310" height="30" as="geometry" />
        </mxCell>
        <mxCell id="O6rhdWlGDvvYx7ezGtEy-179" value="" style="shape=partialRectangle;collapsible=0;dropTarget=0;pointerEvents=0;fillColor=none;top=0;left=0;bottom=0;right=0;points=[[0,0.5],[1,0.5]];portConstraint=eastwest;" vertex="1" parent="O6rhdWlGDvvYx7ezGtEy-139">
          <mxGeometry y="420" width="340" height="30" as="geometry" />
        </mxCell>
        <mxCell id="O6rhdWlGDvvYx7ezGtEy-180" value="" style="shape=partialRectangle;connectable=0;fillColor=none;top=0;left=0;bottom=0;right=0;editable=1;overflow=hidden;" vertex="1" parent="O6rhdWlGDvvYx7ezGtEy-179">
          <mxGeometry width="30" height="30" as="geometry" />
        </mxCell>
        <mxCell id="O6rhdWlGDvvYx7ezGtEy-181" value="modifier_name" style="shape=partialRectangle;connectable=0;fillColor=none;top=0;left=0;bottom=0;right=0;align=left;spacingLeft=6;overflow=hidden;" vertex="1" parent="O6rhdWlGDvvYx7ezGtEy-179">
          <mxGeometry x="30" width="310" height="30" as="geometry" />
        </mxCell>
        <mxCell id="O6rhdWlGDvvYx7ezGtEy-182" value="" style="shape=partialRectangle;collapsible=0;dropTarget=0;pointerEvents=0;fillColor=none;top=0;left=0;bottom=0;right=0;points=[[0,0.5],[1,0.5]];portConstraint=eastwest;" vertex="1" parent="O6rhdWlGDvvYx7ezGtEy-139">
          <mxGeometry y="450" width="340" height="30" as="geometry" />
        </mxCell>
        <mxCell id="O6rhdWlGDvvYx7ezGtEy-183" value="" style="shape=partialRectangle;connectable=0;fillColor=none;top=0;left=0;bottom=0;right=0;editable=1;overflow=hidden;" vertex="1" parent="O6rhdWlGDvvYx7ezGtEy-182">
          <mxGeometry width="30" height="30" as="geometry" />
        </mxCell>
        <mxCell id="O6rhdWlGDvvYx7ezGtEy-184" value="last_modified_at" style="shape=partialRectangle;connectable=0;fillColor=none;top=0;left=0;bottom=0;right=0;align=left;spacingLeft=6;overflow=hidden;" vertex="1" parent="O6rhdWlGDvvYx7ezGtEy-182">
          <mxGeometry x="30" width="310" height="30" as="geometry" />
        </mxCell>
        <mxCell id="O6rhdWlGDvvYx7ezGtEy-185" value="" style="shape=partialRectangle;collapsible=0;dropTarget=0;pointerEvents=0;fillColor=none;top=0;left=0;bottom=0;right=0;points=[[0,0.5],[1,0.5]];portConstraint=eastwest;" vertex="1" parent="O6rhdWlGDvvYx7ezGtEy-139">
          <mxGeometry y="480" width="340" height="30" as="geometry" />
        </mxCell>
        <mxCell id="O6rhdWlGDvvYx7ezGtEy-186" value="" style="shape=partialRectangle;connectable=0;fillColor=none;top=0;left=0;bottom=0;right=0;editable=1;overflow=hidden;" vertex="1" parent="O6rhdWlGDvvYx7ezGtEy-185">
          <mxGeometry width="30" height="30" as="geometry" />
        </mxCell>
        <mxCell id="O6rhdWlGDvvYx7ezGtEy-187" value="version （版本号；新增字段）" style="shape=partialRectangle;connectable=0;fillColor=none;top=0;left=0;bottom=0;right=0;align=left;spacingLeft=6;overflow=hidden;" vertex="1" parent="O6rhdWlGDvvYx7ezGtEy-185">
          <mxGeometry x="30" width="310" height="30" as="geometry" />
        </mxCell>
        <mxCell id="O6rhdWlGDvvYx7ezGtEy-188" value="已有表" style="text;html=1;strokeColor=none;fillColor=none;align=center;verticalAlign=middle;whiteSpace=wrap;rounded=0;" vertex="1" parent="WIyWlLk6GJQsqaUBKTNV-1">
          <mxGeometry x="550" y="240" width="80" height="20" as="geometry" />
        </mxCell>
        <mxCell id="O6rhdWlGDvvYx7ezGtEy-189" value="已有表" style="text;html=1;strokeColor=none;fillColor=none;align=center;verticalAlign=middle;whiteSpace=wrap;rounded=0;" vertex="1" parent="WIyWlLk6GJQsqaUBKTNV-1">
          <mxGeometry x="1310" y="140" width="80" height="20" as="geometry" />
        </mxCell>
        <mxCell id="O6rhdWlGDvvYx7ezGtEy-190" value="config_expression（表达式表）" style="shape=table;startSize=30;container=1;collapsible=1;childLayout=tableLayout;fixedRows=1;rowLines=0;fontStyle=1;align=center;resizeLast=1;" vertex="1" parent="WIyWlLk6GJQsqaUBKTNV-1">
          <mxGeometry x="1250" y="780" width="350" height="160" as="geometry" />
        </mxCell>
        <mxCell id="O6rhdWlGDvvYx7ezGtEy-191" value="" style="shape=partialRectangle;collapsible=0;dropTarget=0;pointerEvents=0;fillColor=none;top=0;left=0;bottom=1;right=0;points=[[0,0.5],[1,0.5]];portConstraint=eastwest;" vertex="1" parent="O6rhdWlGDvvYx7ezGtEy-190">
          <mxGeometry y="30" width="350" height="30" as="geometry" />
        </mxCell>
        <mxCell id="O6rhdWlGDvvYx7ezGtEy-192" value="PK" style="shape=partialRectangle;connectable=0;fillColor=none;top=0;left=0;bottom=0;right=0;fontStyle=1;overflow=hidden;" vertex="1" parent="O6rhdWlGDvvYx7ezGtEy-191">
          <mxGeometry width="30" height="30" as="geometry" />
        </mxCell>
        <mxCell id="O6rhdWlGDvvYx7ezGtEy-193" value="id" style="shape=partialRectangle;connectable=0;fillColor=none;top=0;left=0;bottom=0;right=0;align=left;spacingLeft=6;fontStyle=5;overflow=hidden;" vertex="1" parent="O6rhdWlGDvvYx7ezGtEy-191">
          <mxGeometry x="30" width="320" height="30" as="geometry" />
        </mxCell>
        <mxCell id="O6rhdWlGDvvYx7ezGtEy-194" value="" style="shape=partialRectangle;collapsible=0;dropTarget=0;pointerEvents=0;fillColor=none;top=0;left=0;bottom=0;right=0;points=[[0,0.5],[1,0.5]];portConstraint=eastwest;" vertex="1" parent="O6rhdWlGDvvYx7ezGtEy-190">
          <mxGeometry y="60" width="350" height="30" as="geometry" />
        </mxCell>
        <mxCell id="O6rhdWlGDvvYx7ezGtEy-195" value="" style="shape=partialRectangle;connectable=0;fillColor=none;top=0;left=0;bottom=0;right=0;editable=1;overflow=hidden;" vertex="1" parent="O6rhdWlGDvvYx7ezGtEy-194">
          <mxGeometry width="30" height="30" as="geometry" />
        </mxCell>
        <mxCell id="O6rhdWlGDvvYx7ezGtEy-196" value="topic_white_id（bas_config_topic_white表的主键id）" style="shape=partialRectangle;connectable=0;fillColor=none;top=0;left=0;bottom=0;right=0;align=left;spacingLeft=6;overflow=hidden;" vertex="1" parent="O6rhdWlGDvvYx7ezGtEy-194">
          <mxGeometry x="30" width="320" height="30" as="geometry" />
        </mxCell>
        <mxCell id="O6rhdWlGDvvYx7ezGtEy-197" value="" style="shape=partialRectangle;collapsible=0;dropTarget=0;pointerEvents=0;fillColor=none;top=0;left=0;bottom=0;right=0;points=[[0,0.5],[1,0.5]];portConstraint=eastwest;" vertex="1" parent="O6rhdWlGDvvYx7ezGtEy-190">
          <mxGeometry y="90" width="350" height="30" as="geometry" />
        </mxCell>
        <mxCell id="O6rhdWlGDvvYx7ezGtEy-198" value="" style="shape=partialRectangle;connectable=0;fillColor=none;top=0;left=0;bottom=0;right=0;editable=1;overflow=hidden;" vertex="1" parent="O6rhdWlGDvvYx7ezGtEy-197">
          <mxGeometry width="30" height="30" as="geometry" />
        </mxCell>
        <mxCell id="O6rhdWlGDvvYx7ezGtEy-199" value="Row 2" style="shape=partialRectangle;connectable=0;fillColor=none;top=0;left=0;bottom=0;right=0;align=left;spacingLeft=6;overflow=hidden;" vertex="1" parent="O6rhdWlGDvvYx7ezGtEy-197">
          <mxGeometry x="30" width="320" height="30" as="geometry" />
        </mxCell>
        <mxCell id="O6rhdWlGDvvYx7ezGtEy-200" value="" style="shape=partialRectangle;collapsible=0;dropTarget=0;pointerEvents=0;fillColor=none;top=0;left=0;bottom=0;right=0;points=[[0,0.5],[1,0.5]];portConstraint=eastwest;" vertex="1" parent="O6rhdWlGDvvYx7ezGtEy-190">
          <mxGeometry y="120" width="350" height="30" as="geometry" />
        </mxCell>
        <mxCell id="O6rhdWlGDvvYx7ezGtEy-201" value="" style="shape=partialRectangle;connectable=0;fillColor=none;top=0;left=0;bottom=0;right=0;editable=1;overflow=hidden;" vertex="1" parent="O6rhdWlGDvvYx7ezGtEy-200">
          <mxGeometry width="30" height="30" as="geometry" />
        </mxCell>
        <mxCell id="O6rhdWlGDvvYx7ezGtEy-202" value="Row 3" style="shape=partialRectangle;connectable=0;fillColor=none;top=0;left=0;bottom=0;right=0;align=left;spacingLeft=6;overflow=hidden;" vertex="1" parent="O6rhdWlGDvvYx7ezGtEy-200">
          <mxGeometry x="30" width="320" height="30" as="geometry" />
        </mxCell>
        <mxCell id="O6rhdWlGDvvYx7ezGtEy-203" value="config_grant_auth（授权表）" style="shape=table;startSize=30;container=1;collapsible=1;childLayout=tableLayout;fixedRows=1;rowLines=0;fontStyle=1;align=center;resizeLast=1;" vertex="1" parent="WIyWlLk6GJQsqaUBKTNV-1">
          <mxGeometry x="860" y="760" width="260" height="490" as="geometry" />
        </mxCell>
        <mxCell id="O6rhdWlGDvvYx7ezGtEy-204" value="" style="shape=partialRectangle;collapsible=0;dropTarget=0;pointerEvents=0;fillColor=none;top=0;left=0;bottom=1;right=0;points=[[0,0.5],[1,0.5]];portConstraint=eastwest;" vertex="1" parent="O6rhdWlGDvvYx7ezGtEy-203">
          <mxGeometry y="30" width="260" height="30" as="geometry" />
        </mxCell>
        <mxCell id="O6rhdWlGDvvYx7ezGtEy-205" value="PK" style="shape=partialRectangle;connectable=0;fillColor=none;top=0;left=0;bottom=0;right=0;fontStyle=1;overflow=hidden;" vertex="1" parent="O6rhdWlGDvvYx7ezGtEy-204">
          <mxGeometry width="30" height="30" as="geometry" />
        </mxCell>
        <mxCell id="O6rhdWlGDvvYx7ezGtEy-206" value="id" style="shape=partialRectangle;connectable=0;fillColor=none;top=0;left=0;bottom=0;right=0;align=left;spacingLeft=6;fontStyle=5;overflow=hidden;" vertex="1" parent="O6rhdWlGDvvYx7ezGtEy-204">
          <mxGeometry x="30" width="230" height="30" as="geometry" />
        </mxCell>
        <mxCell id="O6rhdWlGDvvYx7ezGtEy-207" value="" style="shape=partialRectangle;collapsible=0;dropTarget=0;pointerEvents=0;fillColor=none;top=0;left=0;bottom=0;right=0;points=[[0,0.5],[1,0.5]];portConstraint=eastwest;" vertex="1" parent="O6rhdWlGDvvYx7ezGtEy-203">
          <mxGeometry y="60" width="260" height="30" as="geometry" />
        </mxCell>
        <mxCell id="O6rhdWlGDvvYx7ezGtEy-208" value="" style="shape=partialRectangle;connectable=0;fillColor=none;top=0;left=0;bottom=0;right=0;editable=1;overflow=hidden;" vertex="1" parent="O6rhdWlGDvvYx7ezGtEy-207">
          <mxGeometry width="30" height="30" as="geometry" />
        </mxCell>
        <mxCell id="O6rhdWlGDvvYx7ezGtEy-209" value="topic_code_to（被授权方主题编码）" style="shape=partialRectangle;connectable=0;fillColor=none;top=0;left=0;bottom=0;right=0;align=left;spacingLeft=6;overflow=hidden;" vertex="1" parent="O6rhdWlGDvvYx7ezGtEy-207">
          <mxGeometry x="30" width="230" height="30" as="geometry" />
        </mxCell>
        <mxCell id="O6rhdWlGDvvYx7ezGtEy-210" value="" style="shape=partialRectangle;collapsible=0;dropTarget=0;pointerEvents=0;fillColor=none;top=0;left=0;bottom=0;right=0;points=[[0,0.5],[1,0.5]];portConstraint=eastwest;" vertex="1" parent="O6rhdWlGDvvYx7ezGtEy-203">
          <mxGeometry y="90" width="260" height="30" as="geometry" />
        </mxCell>
        <mxCell id="O6rhdWlGDvvYx7ezGtEy-211" value="" style="shape=partialRectangle;connectable=0;fillColor=none;top=0;left=0;bottom=0;right=0;editable=1;overflow=hidden;" vertex="1" parent="O6rhdWlGDvvYx7ezGtEy-210">
          <mxGeometry width="30" height="30" as="geometry" />
        </mxCell>
        <mxCell id="O6rhdWlGDvvYx7ezGtEy-212" value="topic_code_from（授权方主题编码）" style="shape=partialRectangle;connectable=0;fillColor=none;top=0;left=0;bottom=0;right=0;align=left;spacingLeft=6;overflow=hidden;" vertex="1" parent="O6rhdWlGDvvYx7ezGtEy-210">
          <mxGeometry x="30" width="230" height="30" as="geometry" />
        </mxCell>
        <mxCell id="O6rhdWlGDvvYx7ezGtEy-213" value="" style="shape=partialRectangle;collapsible=0;dropTarget=0;pointerEvents=0;fillColor=none;top=0;left=0;bottom=0;right=0;points=[[0,0.5],[1,0.5]];portConstraint=eastwest;" vertex="1" parent="O6rhdWlGDvvYx7ezGtEy-203">
          <mxGeometry y="120" width="260" height="30" as="geometry" />
        </mxCell>
        <mxCell id="O6rhdWlGDvvYx7ezGtEy-214" value="" style="shape=partialRectangle;connectable=0;fillColor=none;top=0;left=0;bottom=0;right=0;editable=1;overflow=hidden;" vertex="1" parent="O6rhdWlGDvvYx7ezGtEy-213">
          <mxGeometry width="30" height="30" as="geometry" />
        </mxCell>
        <mxCell id="O6rhdWlGDvvYx7ezGtEy-215" value="config_field_code (字段标识编码)" style="shape=partialRectangle;connectable=0;fillColor=none;top=0;left=0;bottom=0;right=0;align=left;spacingLeft=6;overflow=hidden;" vertex="1" parent="O6rhdWlGDvvYx7ezGtEy-213">
          <mxGeometry x="30" width="230" height="30" as="geometry" />
        </mxCell>
        <mxCell id="O6rhdWlGDvvYx7ezGtEy-216" value="" style="shape=partialRectangle;collapsible=0;dropTarget=0;pointerEvents=0;fillColor=none;top=0;left=0;bottom=0;right=0;points=[[0,0.5],[1,0.5]];portConstraint=eastwest;" vertex="1" parent="O6rhdWlGDvvYx7ezGtEy-203">
          <mxGeometry y="150" width="260" height="30" as="geometry" />
        </mxCell>
        <mxCell id="O6rhdWlGDvvYx7ezGtEy-217" value="" style="shape=partialRectangle;connectable=0;fillColor=none;top=0;left=0;bottom=0;right=0;editable=1;overflow=hidden;" vertex="1" parent="O6rhdWlGDvvYx7ezGtEy-216">
          <mxGeometry width="30" height="30" as="geometry" />
        </mxCell>
        <mxCell id="O6rhdWlGDvvYx7ezGtEy-218" value="auth_type（授权类型：只读；读写）" style="shape=partialRectangle;connectable=0;fillColor=none;top=0;left=0;bottom=0;right=0;align=left;spacingLeft=6;overflow=hidden;" vertex="1" parent="O6rhdWlGDvvYx7ezGtEy-216">
          <mxGeometry x="30" width="230" height="30" as="geometry" />
        </mxCell>
        <mxCell id="O6rhdWlGDvvYx7ezGtEy-219" value="" style="shape=partialRectangle;collapsible=0;dropTarget=0;pointerEvents=0;fillColor=none;top=0;left=0;bottom=0;right=0;points=[[0,0.5],[1,0.5]];portConstraint=eastwest;" vertex="1" parent="O6rhdWlGDvvYx7ezGtEy-203">
          <mxGeometry y="180" width="260" height="30" as="geometry" />
        </mxCell>
        <mxCell id="O6rhdWlGDvvYx7ezGtEy-220" value="" style="shape=partialRectangle;connectable=0;fillColor=none;top=0;left=0;bottom=0;right=0;editable=1;overflow=hidden;" vertex="1" parent="O6rhdWlGDvvYx7ezGtEy-219">
          <mxGeometry width="30" height="30" as="geometry" />
        </mxCell>
        <mxCell id="O6rhdWlGDvvYx7ezGtEy-221" value="auth_date_begin" style="shape=partialRectangle;connectable=0;fillColor=none;top=0;left=0;bottom=0;right=0;align=left;spacingLeft=6;overflow=hidden;" vertex="1" parent="O6rhdWlGDvvYx7ezGtEy-219">
          <mxGeometry x="30" width="230" height="30" as="geometry" />
        </mxCell>
        <mxCell id="O6rhdWlGDvvYx7ezGtEy-222" value="" style="shape=partialRectangle;collapsible=0;dropTarget=0;pointerEvents=0;fillColor=none;top=0;left=0;bottom=0;right=0;points=[[0,0.5],[1,0.5]];portConstraint=eastwest;" vertex="1" parent="O6rhdWlGDvvYx7ezGtEy-203">
          <mxGeometry y="210" width="260" height="30" as="geometry" />
        </mxCell>
        <mxCell id="O6rhdWlGDvvYx7ezGtEy-223" value="" style="shape=partialRectangle;connectable=0;fillColor=none;top=0;left=0;bottom=0;right=0;editable=1;overflow=hidden;" vertex="1" parent="O6rhdWlGDvvYx7ezGtEy-222">
          <mxGeometry width="30" height="30" as="geometry" />
        </mxCell>
        <mxCell id="O6rhdWlGDvvYx7ezGtEy-224" value="auth_date_end" style="shape=partialRectangle;connectable=0;fillColor=none;top=0;left=0;bottom=0;right=0;align=left;spacingLeft=6;overflow=hidden;" vertex="1" parent="O6rhdWlGDvvYx7ezGtEy-222">
          <mxGeometry x="30" width="230" height="30" as="geometry" />
        </mxCell>
        <mxCell id="O6rhdWlGDvvYx7ezGtEy-225" value="" style="shape=partialRectangle;collapsible=0;dropTarget=0;pointerEvents=0;fillColor=none;top=0;left=0;bottom=0;right=0;points=[[0,0.5],[1,0.5]];portConstraint=eastwest;" vertex="1" parent="O6rhdWlGDvvYx7ezGtEy-203">
          <mxGeometry y="240" width="260" height="30" as="geometry" />
        </mxCell>
        <mxCell id="O6rhdWlGDvvYx7ezGtEy-226" value="" style="shape=partialRectangle;connectable=0;fillColor=none;top=0;left=0;bottom=0;right=0;editable=1;overflow=hidden;" vertex="1" parent="O6rhdWlGDvvYx7ezGtEy-225">
          <mxGeometry width="30" height="30" as="geometry" />
        </mxCell>
        <mxCell id="O6rhdWlGDvvYx7ezGtEy-227" value="deleted（是否删除）" style="shape=partialRectangle;connectable=0;fillColor=none;top=0;left=0;bottom=0;right=0;align=left;spacingLeft=6;overflow=hidden;" vertex="1" parent="O6rhdWlGDvvYx7ezGtEy-225">
          <mxGeometry x="30" width="230" height="30" as="geometry" />
        </mxCell>
        <mxCell id="O6rhdWlGDvvYx7ezGtEy-228" value="" style="shape=partialRectangle;collapsible=0;dropTarget=0;pointerEvents=0;fillColor=none;top=0;left=0;bottom=0;right=0;points=[[0,0.5],[1,0.5]];portConstraint=eastwest;" vertex="1" parent="O6rhdWlGDvvYx7ezGtEy-203">
          <mxGeometry y="270" width="260" height="30" as="geometry" />
        </mxCell>
        <mxCell id="O6rhdWlGDvvYx7ezGtEy-229" value="" style="shape=partialRectangle;connectable=0;fillColor=none;top=0;left=0;bottom=0;right=0;editable=1;overflow=hidden;" vertex="1" parent="O6rhdWlGDvvYx7ezGtEy-228">
          <mxGeometry width="30" height="30" as="geometry" />
        </mxCell>
        <mxCell id="O6rhdWlGDvvYx7ezGtEy-230" value="deleted_at（软删除时间）" style="shape=partialRectangle;connectable=0;fillColor=none;top=0;left=0;bottom=0;right=0;align=left;spacingLeft=6;overflow=hidden;" vertex="1" parent="O6rhdWlGDvvYx7ezGtEy-228">
          <mxGeometry x="30" width="230" height="30" as="geometry" />
        </mxCell>
        <mxCell id="O6rhdWlGDvvYx7ezGtEy-231" value="" style="shape=partialRectangle;collapsible=0;dropTarget=0;pointerEvents=0;fillColor=none;top=0;left=0;bottom=0;right=0;points=[[0,0.5],[1,0.5]];portConstraint=eastwest;" vertex="1" parent="O6rhdWlGDvvYx7ezGtEy-203">
          <mxGeometry y="300" width="260" height="30" as="geometry" />
        </mxCell>
        <mxCell id="O6rhdWlGDvvYx7ezGtEy-232" value="" style="shape=partialRectangle;connectable=0;fillColor=none;top=0;left=0;bottom=0;right=0;editable=1;overflow=hidden;" vertex="1" parent="O6rhdWlGDvvYx7ezGtEy-231">
          <mxGeometry width="30" height="30" as="geometry" />
        </mxCell>
        <mxCell id="O6rhdWlGDvvYx7ezGtEy-233" value="creator_code（创建用户代码）" style="shape=partialRectangle;connectable=0;fillColor=none;top=0;left=0;bottom=0;right=0;align=left;spacingLeft=6;overflow=hidden;" vertex="1" parent="O6rhdWlGDvvYx7ezGtEy-231">
          <mxGeometry x="30" width="230" height="30" as="geometry" />
        </mxCell>
        <mxCell id="O6rhdWlGDvvYx7ezGtEy-234" value="" style="shape=partialRectangle;collapsible=0;dropTarget=0;pointerEvents=0;fillColor=none;top=0;left=0;bottom=0;right=0;points=[[0,0.5],[1,0.5]];portConstraint=eastwest;" vertex="1" parent="O6rhdWlGDvvYx7ezGtEy-203">
          <mxGeometry y="330" width="260" height="30" as="geometry" />
        </mxCell>
        <mxCell id="O6rhdWlGDvvYx7ezGtEy-235" value="" style="shape=partialRectangle;connectable=0;fillColor=none;top=0;left=0;bottom=0;right=0;editable=1;overflow=hidden;" vertex="1" parent="O6rhdWlGDvvYx7ezGtEy-234">
          <mxGeometry width="30" height="30" as="geometry" />
        </mxCell>
        <mxCell id="O6rhdWlGDvvYx7ezGtEy-236" value="creator_name" style="shape=partialRectangle;connectable=0;fillColor=none;top=0;left=0;bottom=0;right=0;align=left;spacingLeft=6;overflow=hidden;" vertex="1" parent="O6rhdWlGDvvYx7ezGtEy-234">
          <mxGeometry x="30" width="230" height="30" as="geometry" />
        </mxCell>
        <mxCell id="O6rhdWlGDvvYx7ezGtEy-237" value="" style="shape=partialRectangle;collapsible=0;dropTarget=0;pointerEvents=0;fillColor=none;top=0;left=0;bottom=0;right=0;points=[[0,0.5],[1,0.5]];portConstraint=eastwest;" vertex="1" parent="O6rhdWlGDvvYx7ezGtEy-203">
          <mxGeometry y="360" width="260" height="30" as="geometry" />
        </mxCell>
        <mxCell id="O6rhdWlGDvvYx7ezGtEy-238" value="" style="shape=partialRectangle;connectable=0;fillColor=none;top=0;left=0;bottom=0;right=0;editable=1;overflow=hidden;" vertex="1" parent="O6rhdWlGDvvYx7ezGtEy-237">
          <mxGeometry width="30" height="30" as="geometry" />
        </mxCell>
        <mxCell id="O6rhdWlGDvvYx7ezGtEy-239" value="modifier_code" style="shape=partialRectangle;connectable=0;fillColor=none;top=0;left=0;bottom=0;right=0;align=left;spacingLeft=6;overflow=hidden;" vertex="1" parent="O6rhdWlGDvvYx7ezGtEy-237">
          <mxGeometry x="30" width="230" height="30" as="geometry" />
        </mxCell>
        <mxCell id="O6rhdWlGDvvYx7ezGtEy-240" value="" style="shape=partialRectangle;collapsible=0;dropTarget=0;pointerEvents=0;fillColor=none;top=0;left=0;bottom=0;right=0;points=[[0,0.5],[1,0.5]];portConstraint=eastwest;" vertex="1" parent="O6rhdWlGDvvYx7ezGtEy-203">
          <mxGeometry y="390" width="260" height="30" as="geometry" />
        </mxCell>
        <mxCell id="O6rhdWlGDvvYx7ezGtEy-241" value="" style="shape=partialRectangle;connectable=0;fillColor=none;top=0;left=0;bottom=0;right=0;editable=1;overflow=hidden;" vertex="1" parent="O6rhdWlGDvvYx7ezGtEy-240">
          <mxGeometry width="30" height="30" as="geometry" />
        </mxCell>
        <mxCell id="O6rhdWlGDvvYx7ezGtEy-242" value="modifier_name" style="shape=partialRectangle;connectable=0;fillColor=none;top=0;left=0;bottom=0;right=0;align=left;spacingLeft=6;overflow=hidden;" vertex="1" parent="O6rhdWlGDvvYx7ezGtEy-240">
          <mxGeometry x="30" width="230" height="30" as="geometry" />
        </mxCell>
        <mxCell id="O6rhdWlGDvvYx7ezGtEy-243" value="" style="shape=partialRectangle;collapsible=0;dropTarget=0;pointerEvents=0;fillColor=none;top=0;left=0;bottom=0;right=0;points=[[0,0.5],[1,0.5]];portConstraint=eastwest;" vertex="1" parent="O6rhdWlGDvvYx7ezGtEy-203">
          <mxGeometry y="420" width="260" height="30" as="geometry" />
        </mxCell>
        <mxCell id="O6rhdWlGDvvYx7ezGtEy-244" value="" style="shape=partialRectangle;connectable=0;fillColor=none;top=0;left=0;bottom=0;right=0;editable=1;overflow=hidden;" vertex="1" parent="O6rhdWlGDvvYx7ezGtEy-243">
          <mxGeometry width="30" height="30" as="geometry" />
        </mxCell>
        <mxCell id="O6rhdWlGDvvYx7ezGtEy-245" value="updated_at（更新时间）" style="shape=partialRectangle;connectable=0;fillColor=none;top=0;left=0;bottom=0;right=0;align=left;spacingLeft=6;overflow=hidden;" vertex="1" parent="O6rhdWlGDvvYx7ezGtEy-243">
          <mxGeometry x="30" width="230" height="30" as="geometry" />
        </mxCell>
        <mxCell id="O6rhdWlGDvvYx7ezGtEy-246" value="" style="shape=partialRectangle;collapsible=0;dropTarget=0;pointerEvents=0;fillColor=none;top=0;left=0;bottom=0;right=0;points=[[0,0.5],[1,0.5]];portConstraint=eastwest;" vertex="1" parent="O6rhdWlGDvvYx7ezGtEy-203">
          <mxGeometry y="450" width="260" height="30" as="geometry" />
        </mxCell>
        <mxCell id="O6rhdWlGDvvYx7ezGtEy-247" value="" style="shape=partialRectangle;connectable=0;fillColor=none;top=0;left=0;bottom=0;right=0;editable=1;overflow=hidden;" vertex="1" parent="O6rhdWlGDvvYx7ezGtEy-246">
          <mxGeometry width="30" height="30" as="geometry" />
        </mxCell>
        <mxCell id="O6rhdWlGDvvYx7ezGtEy-248" value="created_at（创建时间）" style="shape=partialRectangle;connectable=0;fillColor=none;top=0;left=0;bottom=0;right=0;align=left;spacingLeft=6;overflow=hidden;" vertex="1" parent="O6rhdWlGDvvYx7ezGtEy-246">
          <mxGeometry x="30" width="230" height="30" as="geometry" />
        </mxCell>
        <mxCell id="O6rhdWlGDvvYx7ezGtEy-249" value="bas_config_his" style="shape=table;startSize=30;container=1;collapsible=1;childLayout=tableLayout;fixedRows=1;rowLines=0;fontStyle=1;align=center;resizeLast=1;" vertex="1" parent="WIyWlLk6GJQsqaUBKTNV-1">
          <mxGeometry x="490" y="1020" width="250" height="670" as="geometry" />
        </mxCell>
        <mxCell id="O6rhdWlGDvvYx7ezGtEy-250" value="" style="shape=partialRectangle;collapsible=0;dropTarget=0;pointerEvents=0;fillColor=none;top=0;left=0;bottom=1;right=0;points=[[0,0.5],[1,0.5]];portConstraint=eastwest;" vertex="1" parent="O6rhdWlGDvvYx7ezGtEy-249">
          <mxGeometry y="30" width="250" height="30" as="geometry" />
        </mxCell>
        <mxCell id="O6rhdWlGDvvYx7ezGtEy-251" value="PK" style="shape=partialRectangle;connectable=0;fillColor=none;top=0;left=0;bottom=0;right=0;fontStyle=1;overflow=hidden;" vertex="1" parent="O6rhdWlGDvvYx7ezGtEy-250">
          <mxGeometry width="30" height="30" as="geometry" />
        </mxCell>
        <mxCell id="O6rhdWlGDvvYx7ezGtEy-252" value="id" style="shape=partialRectangle;connectable=0;fillColor=none;top=0;left=0;bottom=0;right=0;align=left;spacingLeft=6;fontStyle=5;overflow=hidden;" vertex="1" parent="O6rhdWlGDvvYx7ezGtEy-250">
          <mxGeometry x="30" width="220" height="30" as="geometry" />
        </mxCell>
        <mxCell id="O6rhdWlGDvvYx7ezGtEy-253" value="" style="shape=partialRectangle;collapsible=0;dropTarget=0;pointerEvents=0;fillColor=none;top=0;left=0;bottom=0;right=0;points=[[0,0.5],[1,0.5]];portConstraint=eastwest;" vertex="1" parent="O6rhdWlGDvvYx7ezGtEy-249">
          <mxGeometry y="60" width="250" height="30" as="geometry" />
        </mxCell>
        <mxCell id="O6rhdWlGDvvYx7ezGtEy-254" value="" style="shape=partialRectangle;connectable=0;fillColor=none;top=0;left=0;bottom=0;right=0;editable=1;overflow=hidden;" vertex="1" parent="O6rhdWlGDvvYx7ezGtEy-253">
          <mxGeometry width="30" height="30" as="geometry" />
        </mxCell>
        <mxCell id="O6rhdWlGDvvYx7ezGtEy-255" value="topic_code（配置主题编码）" style="shape=partialRectangle;connectable=0;fillColor=none;top=0;left=0;bottom=0;right=0;align=left;spacingLeft=6;overflow=hidden;" vertex="1" parent="O6rhdWlGDvvYx7ezGtEy-253">
          <mxGeometry x="30" width="220" height="30" as="geometry" />
        </mxCell>
        <mxCell id="O6rhdWlGDvvYx7ezGtEy-256" value="" style="shape=partialRectangle;collapsible=0;dropTarget=0;pointerEvents=0;fillColor=none;top=0;left=0;bottom=0;right=0;points=[[0,0.5],[1,0.5]];portConstraint=eastwest;" vertex="1" parent="O6rhdWlGDvvYx7ezGtEy-249">
          <mxGeometry y="90" width="250" height="30" as="geometry" />
        </mxCell>
        <mxCell id="O6rhdWlGDvvYx7ezGtEy-257" value="" style="shape=partialRectangle;connectable=0;fillColor=none;top=0;left=0;bottom=0;right=0;editable=1;overflow=hidden;" vertex="1" parent="O6rhdWlGDvvYx7ezGtEy-256">
          <mxGeometry width="30" height="30" as="geometry" />
        </mxCell>
        <mxCell id="O6rhdWlGDvvYx7ezGtEy-258" value="level_code（层级编码，如 city）" style="shape=partialRectangle;connectable=0;fillColor=none;top=0;left=0;bottom=0;right=0;align=left;spacingLeft=6;overflow=hidden;" vertex="1" parent="O6rhdWlGDvvYx7ezGtEy-256">
          <mxGeometry x="30" width="220" height="30" as="geometry" />
        </mxCell>
        <mxCell id="O6rhdWlGDvvYx7ezGtEy-259" value="" style="shape=partialRectangle;collapsible=0;dropTarget=0;pointerEvents=0;fillColor=none;top=0;left=0;bottom=0;right=0;points=[[0,0.5],[1,0.5]];portConstraint=eastwest;" vertex="1" parent="O6rhdWlGDvvYx7ezGtEy-249">
          <mxGeometry y="120" width="250" height="30" as="geometry" />
        </mxCell>
        <mxCell id="O6rhdWlGDvvYx7ezGtEy-260" value="" style="shape=partialRectangle;connectable=0;fillColor=none;top=0;left=0;bottom=0;right=0;editable=1;overflow=hidden;" vertex="1" parent="O6rhdWlGDvvYx7ezGtEy-259">
          <mxGeometry width="30" height="30" as="geometry" />
        </mxCell>
        <mxCell id="O6rhdWlGDvvYx7ezGtEy-261" value="target_id（作用目标id，如 城市id）" style="shape=partialRectangle;connectable=0;fillColor=none;top=0;left=0;bottom=0;right=0;align=left;spacingLeft=6;overflow=hidden;" vertex="1" parent="O6rhdWlGDvvYx7ezGtEy-259">
          <mxGeometry x="30" width="220" height="30" as="geometry" />
        </mxCell>
        <mxCell id="O6rhdWlGDvvYx7ezGtEy-262" value="" style="shape=partialRectangle;collapsible=0;dropTarget=0;pointerEvents=0;fillColor=none;top=0;left=0;bottom=0;right=0;points=[[0,0.5],[1,0.5]];portConstraint=eastwest;" vertex="1" parent="O6rhdWlGDvvYx7ezGtEy-249">
          <mxGeometry y="150" width="250" height="30" as="geometry" />
        </mxCell>
        <mxCell id="O6rhdWlGDvvYx7ezGtEy-263" value="" style="shape=partialRectangle;connectable=0;fillColor=none;top=0;left=0;bottom=0;right=0;editable=1;overflow=hidden;" vertex="1" parent="O6rhdWlGDvvYx7ezGtEy-262">
          <mxGeometry width="30" height="30" as="geometry" />
        </mxCell>
        <mxCell id="O6rhdWlGDvvYx7ezGtEy-264" value="tenant_id（租户id）" style="shape=partialRectangle;connectable=0;fillColor=none;top=0;left=0;bottom=0;right=0;align=left;spacingLeft=6;overflow=hidden;" vertex="1" parent="O6rhdWlGDvvYx7ezGtEy-262">
          <mxGeometry x="30" width="220" height="30" as="geometry" />
        </mxCell>
        <mxCell id="O6rhdWlGDvvYx7ezGtEy-265" value="" style="shape=partialRectangle;collapsible=0;dropTarget=0;pointerEvents=0;fillColor=none;top=0;left=0;bottom=0;right=0;points=[[0,0.5],[1,0.5]];portConstraint=eastwest;" vertex="1" parent="O6rhdWlGDvvYx7ezGtEy-249">
          <mxGeometry y="180" width="250" height="30" as="geometry" />
        </mxCell>
        <mxCell id="O6rhdWlGDvvYx7ezGtEy-266" value="" style="shape=partialRectangle;connectable=0;fillColor=none;top=0;left=0;bottom=0;right=0;editable=1;overflow=hidden;" vertex="1" parent="O6rhdWlGDvvYx7ezGtEy-265">
          <mxGeometry width="30" height="30" as="geometry" />
        </mxCell>
        <mxCell id="O6rhdWlGDvvYx7ezGtEy-267" value="priority（排序值）" style="shape=partialRectangle;connectable=0;fillColor=none;top=0;left=0;bottom=0;right=0;align=left;spacingLeft=6;overflow=hidden;" vertex="1" parent="O6rhdWlGDvvYx7ezGtEy-265">
          <mxGeometry x="30" width="220" height="30" as="geometry" />
        </mxCell>
        <mxCell id="O6rhdWlGDvvYx7ezGtEy-268" value="" style="shape=partialRectangle;collapsible=0;dropTarget=0;pointerEvents=0;fillColor=none;top=0;left=0;bottom=0;right=0;points=[[0,0.5],[1,0.5]];portConstraint=eastwest;" vertex="1" parent="O6rhdWlGDvvYx7ezGtEy-249">
          <mxGeometry y="210" width="250" height="30" as="geometry" />
        </mxCell>
        <mxCell id="O6rhdWlGDvvYx7ezGtEy-269" value="" style="shape=partialRectangle;connectable=0;fillColor=none;top=0;left=0;bottom=0;right=0;editable=1;overflow=hidden;" vertex="1" parent="O6rhdWlGDvvYx7ezGtEy-268">
          <mxGeometry width="30" height="30" as="geometry" />
        </mxCell>
        <mxCell id="O6rhdWlGDvvYx7ezGtEy-270" value="content（json格式数据内容）" style="shape=partialRectangle;connectable=0;fillColor=none;top=0;left=0;bottom=0;right=0;align=left;spacingLeft=6;overflow=hidden;" vertex="1" parent="O6rhdWlGDvvYx7ezGtEy-268">
          <mxGeometry x="30" width="220" height="30" as="geometry" />
        </mxCell>
        <mxCell id="O6rhdWlGDvvYx7ezGtEy-271" value="" style="shape=partialRectangle;collapsible=0;dropTarget=0;pointerEvents=0;fillColor=none;top=0;left=0;bottom=0;right=0;points=[[0,0.5],[1,0.5]];portConstraint=eastwest;" vertex="1" parent="O6rhdWlGDvvYx7ezGtEy-249">
          <mxGeometry y="240" width="250" height="30" as="geometry" />
        </mxCell>
        <mxCell id="O6rhdWlGDvvYx7ezGtEy-272" value="" style="shape=partialRectangle;connectable=0;fillColor=none;top=0;left=0;bottom=0;right=0;editable=1;overflow=hidden;" vertex="1" parent="O6rhdWlGDvvYx7ezGtEy-271">
          <mxGeometry width="30" height="30" as="geometry" />
        </mxCell>
        <mxCell id="O6rhdWlGDvvYx7ezGtEy-273" value="scope_id（配置所属最外层配置id）" style="shape=partialRectangle;connectable=0;fillColor=none;top=0;left=0;bottom=0;right=0;align=left;spacingLeft=6;overflow=hidden;" vertex="1" parent="O6rhdWlGDvvYx7ezGtEy-271">
          <mxGeometry x="30" width="220" height="30" as="geometry" />
        </mxCell>
        <mxCell id="O6rhdWlGDvvYx7ezGtEy-274" value="" style="shape=partialRectangle;collapsible=0;dropTarget=0;pointerEvents=0;fillColor=none;top=0;left=0;bottom=0;right=0;points=[[0,0.5],[1,0.5]];portConstraint=eastwest;" vertex="1" parent="O6rhdWlGDvvYx7ezGtEy-249">
          <mxGeometry y="270" width="250" height="30" as="geometry" />
        </mxCell>
        <mxCell id="O6rhdWlGDvvYx7ezGtEy-275" value="" style="shape=partialRectangle;connectable=0;fillColor=none;top=0;left=0;bottom=0;right=0;editable=1;overflow=hidden;" vertex="1" parent="O6rhdWlGDvvYx7ezGtEy-274">
          <mxGeometry width="30" height="30" as="geometry" />
        </mxCell>
        <mxCell id="O6rhdWlGDvvYx7ezGtEy-276" value="parent_id（父级id）" style="shape=partialRectangle;connectable=0;fillColor=none;top=0;left=0;bottom=0;right=0;align=left;spacingLeft=6;overflow=hidden;" vertex="1" parent="O6rhdWlGDvvYx7ezGtEy-274">
          <mxGeometry x="30" width="220" height="30" as="geometry" />
        </mxCell>
        <mxCell id="O6rhdWlGDvvYx7ezGtEy-277" value="" style="shape=partialRectangle;collapsible=0;dropTarget=0;pointerEvents=0;fillColor=none;top=0;left=0;bottom=0;right=0;points=[[0,0.5],[1,0.5]];portConstraint=eastwest;" vertex="1" parent="O6rhdWlGDvvYx7ezGtEy-249">
          <mxGeometry y="300" width="250" height="30" as="geometry" />
        </mxCell>
        <mxCell id="O6rhdWlGDvvYx7ezGtEy-278" value="" style="shape=partialRectangle;connectable=0;fillColor=none;top=0;left=0;bottom=0;right=0;editable=1;overflow=hidden;" vertex="1" parent="O6rhdWlGDvvYx7ezGtEy-277">
          <mxGeometry width="30" height="30" as="geometry" />
        </mxCell>
        <mxCell id="O6rhdWlGDvvYx7ezGtEy-279" value="deleted（是否删除）" style="shape=partialRectangle;connectable=0;fillColor=none;top=0;left=0;bottom=0;right=0;align=left;spacingLeft=6;overflow=hidden;" vertex="1" parent="O6rhdWlGDvvYx7ezGtEy-277">
          <mxGeometry x="30" width="220" height="30" as="geometry" />
        </mxCell>
        <mxCell id="O6rhdWlGDvvYx7ezGtEy-280" value="" style="shape=partialRectangle;collapsible=0;dropTarget=0;pointerEvents=0;fillColor=none;top=0;left=0;bottom=0;right=0;points=[[0,0.5],[1,0.5]];portConstraint=eastwest;" vertex="1" parent="O6rhdWlGDvvYx7ezGtEy-249">
          <mxGeometry y="330" width="250" height="30" as="geometry" />
        </mxCell>
        <mxCell id="O6rhdWlGDvvYx7ezGtEy-281" value="" style="shape=partialRectangle;connectable=0;fillColor=none;top=0;left=0;bottom=0;right=0;editable=1;overflow=hidden;" vertex="1" parent="O6rhdWlGDvvYx7ezGtEy-280">
          <mxGeometry width="30" height="30" as="geometry" />
        </mxCell>
        <mxCell id="O6rhdWlGDvvYx7ezGtEy-282" value="remark（备注）" style="shape=partialRectangle;connectable=0;fillColor=none;top=0;left=0;bottom=0;right=0;align=left;spacingLeft=6;overflow=hidden;" vertex="1" parent="O6rhdWlGDvvYx7ezGtEy-280">
          <mxGeometry x="30" width="220" height="30" as="geometry" />
        </mxCell>
        <mxCell id="O6rhdWlGDvvYx7ezGtEy-283" value="" style="shape=partialRectangle;collapsible=0;dropTarget=0;pointerEvents=0;fillColor=none;top=0;left=0;bottom=0;right=0;points=[[0,0.5],[1,0.5]];portConstraint=eastwest;" vertex="1" parent="O6rhdWlGDvvYx7ezGtEy-249">
          <mxGeometry y="360" width="250" height="30" as="geometry" />
        </mxCell>
        <mxCell id="O6rhdWlGDvvYx7ezGtEy-284" value="" style="shape=partialRectangle;connectable=0;fillColor=none;top=0;left=0;bottom=0;right=0;editable=1;overflow=hidden;" vertex="1" parent="O6rhdWlGDvvYx7ezGtEy-283">
          <mxGeometry width="30" height="30" as="geometry" />
        </mxCell>
        <mxCell id="O6rhdWlGDvvYx7ezGtEy-285" value="status（有效状态）" style="shape=partialRectangle;connectable=0;fillColor=none;top=0;left=0;bottom=0;right=0;align=left;spacingLeft=6;overflow=hidden;" vertex="1" parent="O6rhdWlGDvvYx7ezGtEy-283">
          <mxGeometry x="30" width="220" height="30" as="geometry" />
        </mxCell>
        <mxCell id="O6rhdWlGDvvYx7ezGtEy-286" value="" style="shape=partialRectangle;collapsible=0;dropTarget=0;pointerEvents=0;fillColor=none;top=0;left=0;bottom=0;right=0;points=[[0,0.5],[1,0.5]];portConstraint=eastwest;" vertex="1" parent="O6rhdWlGDvvYx7ezGtEy-249">
          <mxGeometry y="390" width="250" height="30" as="geometry" />
        </mxCell>
        <mxCell id="O6rhdWlGDvvYx7ezGtEy-287" value="" style="shape=partialRectangle;connectable=0;fillColor=none;top=0;left=0;bottom=0;right=0;editable=1;overflow=hidden;" vertex="1" parent="O6rhdWlGDvvYx7ezGtEy-286">
          <mxGeometry width="30" height="30" as="geometry" />
        </mxCell>
        <mxCell id="O6rhdWlGDvvYx7ezGtEy-288" value="begin_valid_date（有效时间起）" style="shape=partialRectangle;connectable=0;fillColor=none;top=0;left=0;bottom=0;right=0;align=left;spacingLeft=6;overflow=hidden;" vertex="1" parent="O6rhdWlGDvvYx7ezGtEy-286">
          <mxGeometry x="30" width="220" height="30" as="geometry" />
        </mxCell>
        <mxCell id="O6rhdWlGDvvYx7ezGtEy-289" value="" style="shape=partialRectangle;collapsible=0;dropTarget=0;pointerEvents=0;fillColor=none;top=0;left=0;bottom=0;right=0;points=[[0,0.5],[1,0.5]];portConstraint=eastwest;" vertex="1" parent="O6rhdWlGDvvYx7ezGtEy-249">
          <mxGeometry y="420" width="250" height="30" as="geometry" />
        </mxCell>
        <mxCell id="O6rhdWlGDvvYx7ezGtEy-290" value="" style="shape=partialRectangle;connectable=0;fillColor=none;top=0;left=0;bottom=0;right=0;editable=1;overflow=hidden;" vertex="1" parent="O6rhdWlGDvvYx7ezGtEy-289">
          <mxGeometry width="30" height="30" as="geometry" />
        </mxCell>
        <mxCell id="O6rhdWlGDvvYx7ezGtEy-291" value="end_valid_date（有效时间止）" style="shape=partialRectangle;connectable=0;fillColor=none;top=0;left=0;bottom=0;right=0;align=left;spacingLeft=6;overflow=hidden;" vertex="1" parent="O6rhdWlGDvvYx7ezGtEy-289">
          <mxGeometry x="30" width="220" height="30" as="geometry" />
        </mxCell>
        <mxCell id="O6rhdWlGDvvYx7ezGtEy-292" value="" style="shape=partialRectangle;collapsible=0;dropTarget=0;pointerEvents=0;fillColor=none;top=0;left=0;bottom=0;right=0;points=[[0,0.5],[1,0.5]];portConstraint=eastwest;" vertex="1" parent="O6rhdWlGDvvYx7ezGtEy-249">
          <mxGeometry y="450" width="250" height="30" as="geometry" />
        </mxCell>
        <mxCell id="O6rhdWlGDvvYx7ezGtEy-293" value="" style="shape=partialRectangle;connectable=0;fillColor=none;top=0;left=0;bottom=0;right=0;editable=1;overflow=hidden;" vertex="1" parent="O6rhdWlGDvvYx7ezGtEy-292">
          <mxGeometry width="30" height="30" as="geometry" />
        </mxCell>
        <mxCell id="O6rhdWlGDvvYx7ezGtEy-294" value="creator_code" style="shape=partialRectangle;connectable=0;fillColor=none;top=0;left=0;bottom=0;right=0;align=left;spacingLeft=6;overflow=hidden;" vertex="1" parent="O6rhdWlGDvvYx7ezGtEy-292">
          <mxGeometry x="30" width="220" height="30" as="geometry" />
        </mxCell>
        <mxCell id="O6rhdWlGDvvYx7ezGtEy-295" value="" style="shape=partialRectangle;collapsible=0;dropTarget=0;pointerEvents=0;fillColor=none;top=0;left=0;bottom=0;right=0;points=[[0,0.5],[1,0.5]];portConstraint=eastwest;" vertex="1" parent="O6rhdWlGDvvYx7ezGtEy-249">
          <mxGeometry y="480" width="250" height="30" as="geometry" />
        </mxCell>
        <mxCell id="O6rhdWlGDvvYx7ezGtEy-296" value="" style="shape=partialRectangle;connectable=0;fillColor=none;top=0;left=0;bottom=0;right=0;editable=1;overflow=hidden;" vertex="1" parent="O6rhdWlGDvvYx7ezGtEy-295">
          <mxGeometry width="30" height="30" as="geometry" />
        </mxCell>
        <mxCell id="O6rhdWlGDvvYx7ezGtEy-297" value="creator_name" style="shape=partialRectangle;connectable=0;fillColor=none;top=0;left=0;bottom=0;right=0;align=left;spacingLeft=6;overflow=hidden;" vertex="1" parent="O6rhdWlGDvvYx7ezGtEy-295">
          <mxGeometry x="30" width="220" height="30" as="geometry" />
        </mxCell>
        <mxCell id="O6rhdWlGDvvYx7ezGtEy-298" value="" style="shape=partialRectangle;collapsible=0;dropTarget=0;pointerEvents=0;fillColor=none;top=0;left=0;bottom=0;right=0;points=[[0,0.5],[1,0.5]];portConstraint=eastwest;" vertex="1" parent="O6rhdWlGDvvYx7ezGtEy-249">
          <mxGeometry y="510" width="250" height="30" as="geometry" />
        </mxCell>
        <mxCell id="O6rhdWlGDvvYx7ezGtEy-299" value="" style="shape=partialRectangle;connectable=0;fillColor=none;top=0;left=0;bottom=0;right=0;editable=1;overflow=hidden;" vertex="1" parent="O6rhdWlGDvvYx7ezGtEy-298">
          <mxGeometry width="30" height="30" as="geometry" />
        </mxCell>
        <mxCell id="O6rhdWlGDvvYx7ezGtEy-300" value="created_at" style="shape=partialRectangle;connectable=0;fillColor=none;top=0;left=0;bottom=0;right=0;align=left;spacingLeft=6;overflow=hidden;" vertex="1" parent="O6rhdWlGDvvYx7ezGtEy-298">
          <mxGeometry x="30" width="220" height="30" as="geometry" />
        </mxCell>
        <mxCell id="O6rhdWlGDvvYx7ezGtEy-301" value="" style="shape=partialRectangle;collapsible=0;dropTarget=0;pointerEvents=0;fillColor=none;top=0;left=0;bottom=0;right=0;points=[[0,0.5],[1,0.5]];portConstraint=eastwest;" vertex="1" parent="O6rhdWlGDvvYx7ezGtEy-249">
          <mxGeometry y="540" width="250" height="30" as="geometry" />
        </mxCell>
        <mxCell id="O6rhdWlGDvvYx7ezGtEy-302" value="" style="shape=partialRectangle;connectable=0;fillColor=none;top=0;left=0;bottom=0;right=0;editable=1;overflow=hidden;" vertex="1" parent="O6rhdWlGDvvYx7ezGtEy-301">
          <mxGeometry width="30" height="30" as="geometry" />
        </mxCell>
        <mxCell id="O6rhdWlGDvvYx7ezGtEy-303" value="modifier_code" style="shape=partialRectangle;connectable=0;fillColor=none;top=0;left=0;bottom=0;right=0;align=left;spacingLeft=6;overflow=hidden;" vertex="1" parent="O6rhdWlGDvvYx7ezGtEy-301">
          <mxGeometry x="30" width="220" height="30" as="geometry" />
        </mxCell>
        <mxCell id="O6rhdWlGDvvYx7ezGtEy-304" value="" style="shape=partialRectangle;collapsible=0;dropTarget=0;pointerEvents=0;fillColor=none;top=0;left=0;bottom=0;right=0;points=[[0,0.5],[1,0.5]];portConstraint=eastwest;" vertex="1" parent="O6rhdWlGDvvYx7ezGtEy-249">
          <mxGeometry y="570" width="250" height="30" as="geometry" />
        </mxCell>
        <mxCell id="O6rhdWlGDvvYx7ezGtEy-305" value="" style="shape=partialRectangle;connectable=0;fillColor=none;top=0;left=0;bottom=0;right=0;editable=1;overflow=hidden;" vertex="1" parent="O6rhdWlGDvvYx7ezGtEy-304">
          <mxGeometry width="30" height="30" as="geometry" />
        </mxCell>
        <mxCell id="O6rhdWlGDvvYx7ezGtEy-306" value="modifier_name" style="shape=partialRectangle;connectable=0;fillColor=none;top=0;left=0;bottom=0;right=0;align=left;spacingLeft=6;overflow=hidden;" vertex="1" parent="O6rhdWlGDvvYx7ezGtEy-304">
          <mxGeometry x="30" width="220" height="30" as="geometry" />
        </mxCell>
        <mxCell id="O6rhdWlGDvvYx7ezGtEy-307" value="" style="shape=partialRectangle;collapsible=0;dropTarget=0;pointerEvents=0;fillColor=none;top=0;left=0;bottom=0;right=0;points=[[0,0.5],[1,0.5]];portConstraint=eastwest;" vertex="1" parent="O6rhdWlGDvvYx7ezGtEy-249">
          <mxGeometry y="600" width="250" height="30" as="geometry" />
        </mxCell>
        <mxCell id="O6rhdWlGDvvYx7ezGtEy-308" value="" style="shape=partialRectangle;connectable=0;fillColor=none;top=0;left=0;bottom=0;right=0;editable=1;overflow=hidden;" vertex="1" parent="O6rhdWlGDvvYx7ezGtEy-307">
          <mxGeometry width="30" height="30" as="geometry" />
        </mxCell>
        <mxCell id="O6rhdWlGDvvYx7ezGtEy-309" value="last_modified_at" style="shape=partialRectangle;connectable=0;fillColor=none;top=0;left=0;bottom=0;right=0;align=left;spacingLeft=6;overflow=hidden;" vertex="1" parent="O6rhdWlGDvvYx7ezGtEy-307">
          <mxGeometry x="30" width="220" height="30" as="geometry" />
        </mxCell>
        <mxCell id="O6rhdWlGDvvYx7ezGtEy-310" value="" style="shape=partialRectangle;collapsible=0;dropTarget=0;pointerEvents=0;fillColor=none;top=0;left=0;bottom=0;right=0;points=[[0,0.5],[1,0.5]];portConstraint=eastwest;" vertex="1" parent="O6rhdWlGDvvYx7ezGtEy-249">
          <mxGeometry y="630" width="250" height="30" as="geometry" />
        </mxCell>
        <mxCell id="O6rhdWlGDvvYx7ezGtEy-311" value="" style="shape=partialRectangle;connectable=0;fillColor=none;top=0;left=0;bottom=0;right=0;editable=1;overflow=hidden;" vertex="1" parent="O6rhdWlGDvvYx7ezGtEy-310">
          <mxGeometry width="30" height="30" as="geometry" />
        </mxCell>
        <mxCell id="O6rhdWlGDvvYx7ezGtEy-312" value="version （版本号；新增字段）" style="shape=partialRectangle;connectable=0;fillColor=none;top=0;left=0;bottom=0;right=0;align=left;spacingLeft=6;overflow=hidden;" vertex="1" parent="O6rhdWlGDvvYx7ezGtEy-310">
          <mxGeometry x="30" width="220" height="30" as="geometry" />
        </mxCell>
        <mxCell id="O6rhdWlGDvvYx7ezGtEy-313" value="&lt;h1&gt;问题点记录：&lt;/h1&gt;&lt;p&gt;1、历史表中，需不需要记录已删除的数据 。&lt;br&gt;2、&lt;/p&gt;" style="text;html=1;strokeColor=none;fillColor=none;spacing=5;spacingTop=-20;whiteSpace=wrap;overflow=hidden;rounded=0;" vertex="1" parent="WIyWlLk6GJQsqaUBKTNV-1">
          <mxGeometry x="20" y="10" width="340" height="120" as="geometry" />
        </mxCell>
      </root>
    </mxGraphModel>
  </diagram>
</mxfile>
